<?xml version="1.0" encoding="utf-8"?>
<!-- Generator: Adobe Illustrator 21.0.0, SVG Export Plug-In . SVG Version: 6.00 Build 0)  -->
<svg version="1.1" id="Layer_2" xmlns="http://www.w3.org/2000/svg" xmlns:xlink="http://www.w3.org/1999/xlink" x="0px" y="0px"
	 viewBox="0 0 1920 941" style="enable-background:new 0 0 1920 941;" xml:space="preserve">
<style type="text/css">
	.st0{fill:#00ADC4;}
	.st1{filter:url(#Adobe_OpacityMaskFilter);}
	.st2{opacity:3.000000e-02;mask:url(#SVGID_1_);}
	.st3{fill:#00A7BE;}
	.st4{fill:#00AFC5;}
	.st5{fill:#00A4BB;}
	.st6{filter:url(#Adobe_OpacityMaskFilter_1_);}
	.st7{opacity:5.000000e-02;mask:url(#SVGID_2_);}
	.st8{fill:#00ABC1;}
	.st9{filter:url(#Adobe_OpacityMaskFilter_2_);}
	.st10{opacity:5.000000e-02;mask:url(#SVGID_3_);}
</style>
<g>
	<g>
		<polygon class="st0" points="220,153 896.7,326.3 49.9,825.8 0,823 0,0 1009.7,0 		"/>
	</g>
	<defs>
		<filter id="Adobe_OpacityMaskFilter" filterUnits="userSpaceOnUse" x="0" y="0" width="1009.7" height="825.8">
			
				<feColorMatrix  type="matrix" values="-1 0 0 0 1  0 -1 0 0 1  0 0 -1 0 1  0 0 0 1 0" color-interpolation-filters="sRGB" result="source"/>
		</filter>
	</defs>
	<mask maskUnits="userSpaceOnUse" x="0" y="0" width="1009.7" height="825.8" id="SVGID_1_">
		<g class="st1">
			<image style="overflow:visible;" width="1014" height="830" xlink:href="5EB70AEA.jpg"  transform="matrix(1 0 0 1 -2 -2)">
			</image>
		</g>
	</mask>
	<g class="st2">
		<polygon class="st0" points="220,153 896.7,326.3 49.9,825.8 0,823 0,0 1009.7,0 		"/>
	</g>
</g>
<g>
	<polygon class="st3" points="1920,591 1920,939.3 1561.7,917.6 1073.8,620.2 1604.8,509.8 	"/>
</g>
<polygon class="st4" points="1920,0 1920,594 1604.8,515.8 892.7,329.3 209,153 1004.7,0 "/>
<g>
	<g>
		<polygon class="st5" points="1564.7,917.6 808.6,872 76.1,827.6 864.7,663.7 1078.8,621.2 		"/>
	</g>
	<defs>
		<filter id="Adobe_OpacityMaskFilter_1_" filterUnits="userSpaceOnUse" x="76.1" y="621.2" width="1488.6" height="296.4">
			
				<feColorMatrix  type="matrix" values="-1 0 0 0 1  0 -1 0 0 1  0 0 -1 0 1  0 0 0 1 0" color-interpolation-filters="sRGB" result="source"/>
		</filter>
	</defs>
	<mask maskUnits="userSpaceOnUse" x="76.1" y="621.2" width="1488.6" height="296.4" id="SVGID_2_">
		<g class="st6">
			<image style="overflow:visible;" width="1493" height="301" xlink:href="5EB70AEC.jpg"  transform="matrix(1 0 0 1 74 619)">
			</image>
		</g>
	</mask>
	<g class="st7">
		<polygon class="st5" points="1564.7,917.6 808.6,872 76.1,827.6 864.7,663.7 1078.8,621.2 		"/>
	</g>
</g>
<g>
	<g>
		<polygon class="st8" points="1607.8,514.8 1073.8,626.2 864.7,669.7 76.1,827.6 76.1,827.6 46.9,825.8 892.7,326.3 		"/>
	</g>
	<defs>
		<filter id="Adobe_OpacityMaskFilter_2_" filterUnits="userSpaceOnUse" x="46.9" y="326.3" width="1560.9" height="501.3">
			
				<feColorMatrix  type="matrix" values="-1 0 0 0 1  0 -1 0 0 1  0 0 -1 0 1  0 0 0 1 0" color-interpolation-filters="sRGB" result="source"/>
		</filter>
	</defs>
	<mask maskUnits="userSpaceOnUse" x="46.9" y="326.3" width="1560.9" height="501.3" id="SVGID_3_">
		<g class="st9">
			<image style="overflow:visible;" width="1566" height="506" xlink:href="5EB70AE3.jpg"  transform="matrix(1 0 0 1 44 324)">
			</image>
		</g>
	</mask>
	<g class="st10">
		<polygon class="st8" points="1607.8,514.8 1073.8,626.2 864.7,669.7 76.1,827.6 76.1,827.6 46.9,825.8 892.7,326.3 		"/>
	</g>
</g>
</svg>
