<?xml version="1.0" encoding="UTF-8" standalone="no"?>
<svg
   xmlns:dc="http://purl.org/dc/elements/1.1/"
   xmlns:cc="http://creativecommons.org/ns#"
   xmlns:rdf="http://www.w3.org/1999/02/22-rdf-syntax-ns#"
   xmlns:svg="http://www.w3.org/2000/svg"
   xmlns="http://www.w3.org/2000/svg"
   viewBox="0 0 11844 7380"
   height="7380"
   width="11844"
   xml:space="preserve"
   id="svg2"
   version="1.1"><metadata
     id="metadata8"><rdf:RDF><cc:Work
         rdf:about=""><dc:format>image/svg+xml</dc:format><dc:type
           rdf:resource="http://purl.org/dc/dcmitype/StillImage" /></cc:Work></rdf:RDF></metadata><defs
     id="defs6"><clipPath
       id="clipPath18"
       clipPathUnits="userSpaceOnUse"><path
         id="path16"
         d="m 5413.874,3837.864 -229.529,-132.516 c -9.639,-5.567 -15.578,-15.851 -15.578,-26.982 v 0 -265.037 c 0,-11.129 5.939,-21.415 15.578,-26.98 v 0 l 229.529,-132.518 c 9.64,-5.565 21.515,-5.565 31.155,0 v 0 l 229.526,132.518 c 9.642,5.565 15.581,15.851 15.581,26.98 v 0 265.037 c 0,11.131 -5.939,21.415 -15.581,26.982 v 0 l -229.526,132.516 c -4.82,2.784 -10.199,4.175 -15.578,4.175 v 0 c -5.379,0 -10.757,-1.391 -15.577,-4.175" /></clipPath><clipPath
       id="clipPath66"
       clipPathUnits="userSpaceOnUse"><path
         id="path64"
         d="M 0,5535 H 8883 V 0 H 0 Z" /></clipPath><clipPath
       id="clipPath184"
       clipPathUnits="userSpaceOnUse"><path
         id="path182"
         d="M 6580.08,4732.59 H 7198.9 V 4359.28 H 6580.08 Z" /></clipPath></defs><g
     transform="matrix(1.3333333,0,0,-1.3333333,0,7380)"
     id="g10"><g
       id="g12"><g
         clip-path="url(#clipPath18)"
         id="g14"><g
           transform="translate(5690.1357,3696.3535)"
           id="g20"><path
             id="path22"
             style="fill:#bbbbb9;fill-opacity:1;fill-rule:nonzero;stroke:none"
             d="M 0,0 -260.688,-150.505 -521.368,0 -260.683,150.506 Z" /></g><g
           transform="translate(5429.4482,3545.8486)"
           id="g24"><path
             id="path26"
             style="fill:#3b899f;fill-opacity:1;fill-rule:nonzero;stroke:none"
             d="m 0,0 0.005,-301.011 260.683,150.504 v 301.012 z" /></g><g
           transform="translate(5429.4482,3548.9463)"
           id="g28"><path
             id="path30"
             style="fill:#d0d0ce;fill-opacity:1;fill-rule:nonzero;stroke:none"
             d="m 0,0 0.005,-301.012 -260.686,150.505 v 301.012 z" /></g><g
           transform="translate(5527.9141,3513.3906)"
           id="g32"><path
             id="path34"
             style="fill:#ffffff;fill-opacity:1;fill-rule:nonzero;stroke:none"
             d="M 0,0 V 28.436 L 119.518,97.641 V 69.205 Z" /></g><g
           transform="translate(5471.6621,3401.7383)"
           id="g36"><path
             id="path38"
             style="fill:#ffffff;fill-opacity:1;fill-rule:nonzero;stroke:none"
             d="M 0,0 V 28.436 L 175.77,130.363 V 101.928 Z" /></g><g
           transform="translate(5471.6621,3322.8086)"
           id="g40"><path
             id="path42"
             style="fill:#ffffff;fill-opacity:1;fill-rule:nonzero;stroke:none"
             d="M 0,0 V 28.438 L 175.77,130.367 V 101.932 Z" /></g><g
           transform="translate(5382.7168,3481.4551)"
           id="g44"><path
             id="path46"
             style="fill:#ffffff;fill-opacity:1;fill-rule:nonzero;stroke:none"
             d="M 0,0 V 28.436 L -119.52,97.641 V 69.205 Z" /></g><g
           transform="translate(5382.7168,3401.7383)"
           id="g48"><path
             id="path50"
             style="fill:#ffffff;fill-opacity:1;fill-rule:nonzero;stroke:none"
             d="M 0,0 V 28.436 L -175.77,130.363 V 101.928 Z" /></g><g
           transform="translate(5382.7168,3322.8086)"
           id="g52"><path
             id="path54"
             style="fill:#ffffff;fill-opacity:1;fill-rule:nonzero;stroke:none"
             d="M 0,0 V 28.438 L -175.77,130.367 V 101.932 Z" /></g></g></g><g
       transform="translate(6841.9463,3516.9883)"
       id="g56"><path
         id="path58"
         style="fill:#2c2b2a;fill-opacity:1;fill-rule:nonzero;stroke:none"
         d="M 0,0 14.433,14.432 H 129.884 L 144.317,0 72.159,-57.727 Z" /></g><g
       id="g60"><g
         clip-path="url(#clipPath66)"
         id="g62"><g
           transform="translate(6712.0625,3329.376)"
           id="g68"><path
             id="path70"
             style="fill:#c96a4f;fill-opacity:1;fill-rule:nonzero;stroke:none"
             d="m 0,0 c -7.386,0 -14.785,2.818 -20.408,8.463 -5.637,5.623 -8.457,13.016 -8.457,20.399 V 70.39 c 0,12.437 3.99,24.966 12.219,35.529 8.259,10.549 19.448,17.448 31.512,20.478 l 107.591,26.883 c 6.032,1.515 11.628,4.968 15.742,10.245 4.129,5.287 6.117,11.551 6.117,17.766 v 20.753 57.727 h 115.452 v -78.48 c 0,-6.215 1.989,-12.479 6.117,-17.766 4.115,-5.277 9.711,-8.73 15.744,-10.245 l 107.59,-26.883 c 12.064,-3.03 23.253,-9.929 31.511,-20.478 8.231,-10.563 12.22,-23.092 12.22,-35.529 V 28.862 c 0,-7.383 -2.821,-14.776 -8.458,-20.399 C 418.869,2.818 411.471,0 404.085,0 Z" /></g><g
           transform="translate(7132.7793,3435.2881)"
           id="g72"><path
             id="path74"
             style="fill:#5eb2c5;fill-opacity:1;fill-rule:nonzero;stroke:none"
             d="m 0,0 c -8.231,10.563 -19.434,17.462 -31.498,20.479 l -107.59,26.896 c -6.033,1.501 -11.613,4.954 -15.744,10.231 -1.662,2.128 -2.734,4.49 -3.705,6.857 l -31.272,-26.058 h -28.865 -28.863 l -31.273,26.058 c -0.987,-2.367 -2.044,-4.729 -3.694,-6.857 -4.128,-5.277 -9.737,-8.73 -15.771,-10.231 L -405.864,20.479 c -12.065,-3.017 -23.24,-9.916 -31.498,-20.479 -8.245,-10.563 -12.22,-23.092 -12.22,-35.53 v -41.52 c 0,-7.377 2.82,-14.769 8.457,-20.406 5.623,-5.631 13.006,-8.456 20.408,-8.456 h 404.085 c 7.386,0 14.771,2.825 20.407,8.456 5.637,5.637 8.458,13.029 8.458,20.406 v 41.52 C 12.233,-23.092 8.244,-10.563 0,0" /></g><g
           transform="translate(6813.084,3473.6934)"
           id="g76"><path
             id="path78"
             style="fill:#bbbbb9;fill-opacity:1;fill-rule:nonzero;stroke:none"
             d="M 0,0 28.862,43.295 101.021,0 72.158,-43.296 Z" /></g><g
           transform="translate(7015.1289,3473.6934)"
           id="g80"><path
             id="path82"
             style="fill:#bbbbb9;fill-opacity:1;fill-rule:nonzero;stroke:none"
             d="M 0,0 -28.865,43.295 -101.023,0 -72.158,-43.296 Z" /></g><g
           transform="translate(6996.9473,3649.96)"
           id="g84"><path
             id="path86"
             style="fill:#e5815b;fill-opacity:1;fill-rule:nonzero;stroke:none"
             d="m 0,0 c -4.174,51.969 -26.748,88.915 -86.646,88.915 -59.911,0 -83.251,-38.476 -87.423,-90.431 -6.496,-2.811 -10.839,-14.487 -9.569,-31.215 1.354,-18.069 8.329,-32.458 15.896,-33.522 13.515,-42.718 44.733,-77.268 81.096,-77.268 36.358,0 67.564,34.55 81.078,77.268 C 2.029,-65.189 8.977,-50.8 10.33,-32.731 11.598,-16.003 6.482,-2.812 0,0" /></g><g
           transform="translate(6845.7656,3635.2881)"
           id="g88"><path
             id="path90"
             style="fill:#2c2b2a;fill-opacity:1;fill-rule:nonzero;stroke:none"
             d="m 0,0 h 5.086 c 0,0 -3.676,30.005 9.219,36.502 C 35.051,46.967 43.408,16.771 85.816,21.218 128.236,25.65 125.77,0 125.77,0 h 4.185 c 0,0 1.691,10.296 5.934,12.833 15.404,9.237 22.154,-6.582 22.154,-6.582 0,0 0.353,5.771 0.353,9.985 0,69.185 -26.552,93.101 -59.431,104.601 -49.102,17.187 -67.649,-6.828 -67.649,-6.828 0,0 -20.464,-0.734 -39.209,-17.836 -17.769,-16.206 -24.339,-37.481 -21.378,-79.895 0.463,-6.695 -0.2,-9.132 -0.2,-10.507 6.022,9.747 15.364,11.648 22.369,7.378 C -2.367,10.26 0,0 0,0" /></g><g
           transform="translate(5274.8594,4590.4185)"
           id="g92"><path
             id="path94"
             style="fill:#b4b3b2;fill-opacity:1;fill-rule:nonzero;stroke:none"
             d="m 0,0 h 155.068 l 62.029,-186.082 H -77.535 Z" /></g><g
           transform="translate(5274.8594,4605.9253)"
           id="g96"><path
             id="path98"
             style="fill:#929393;fill-opacity:1;fill-rule:nonzero;stroke:none"
             d="m 0,0 31.014,15.507 h 93.041 L 155.068,0 77.534,-62.027 Z" /></g><g
           transform="translate(5429.9277,4563.8428)"
           id="g100"><path
             id="path102"
             style="fill:#c96a4f;fill-opacity:1;fill-rule:nonzero;stroke:none"
             d="M 0,0 -77.534,-19.944 -155.068,0 V 119.618 H 0 Z" /></g><g
           transform="translate(5491.9561,4559.4058)"
           id="g104"><path
             id="path106"
             style="fill:#40adbf;fill-opacity:1;fill-rule:nonzero;stroke:none"
             d="M 0,0 -46.521,-15.507 -139.563,-186.083 -232.604,-15.507 -279.125,0 -387.673,-31.014 v -124.055 c 0,-7.935 3.022,-15.879 9.088,-21.92 6.049,-6.066 13.984,-9.094 21.926,-9.094 h 217.096 217.097 c 7.944,0 15.878,3.028 21.928,9.094 6.064,6.041 9.087,13.985 9.087,21.92 v 124.055 z" /></g><g
           transform="translate(5352.3936,4559.4058)"
           id="g108"><path
             id="path110"
             style="fill:#3f93aa;fill-opacity:1;fill-rule:nonzero;stroke:none"
             d="m 0,0 -46.521,-15.507 31.014,-46.521 -31.014,-124.055 h 93.042 l -31.014,124.055 31.014,46.521 z" /></g><g
           transform="translate(5259.3516,4590.4185)"
           id="g112"><path
             id="path114"
             style="fill:#f6f6f6;fill-opacity:1;fill-rule:nonzero;stroke:none"
             d="M 0,0 15.508,15.507 93.042,-31.013 15.508,-93.041 Z" /></g><g
           transform="translate(5259.3516,4590.4185)"
           id="g116"><path
             id="path118"
             style="fill:#3f93aa;fill-opacity:1;fill-rule:nonzero;stroke:none"
             d="M 0,0 -46.521,-31.013 -62.027,-93.041 H 0 l -46.521,-31.013 77.535,-93.042 h 62.028 z" /></g><g
           transform="translate(5445.4355,4590.4185)"
           id="g120"><path
             id="path122"
             style="fill:#f6f6f6;fill-opacity:1;fill-rule:nonzero;stroke:none"
             d="m 0,0 -15.508,15.507 -77.534,-46.52 77.534,-62.028 z" /></g><g
           transform="translate(5445.4355,4590.4185)"
           id="g124"><path
             id="path126"
             style="fill:#3f93aa;fill-opacity:1;fill-rule:nonzero;stroke:none"
             d="M 0,0 46.521,-31.013 62.027,-93.041 H 0 l 46.521,-31.013 -77.535,-93.042 h -62.028 z" /></g><g
           transform="translate(5442.4004,4743.8979)"
           id="g128"><path
             id="path130"
             style="fill:#e5815b;fill-opacity:1;fill-rule:nonzero;stroke:none"
             d="m 0,0 c -4.477,55.84 -28.752,95.54 -93.102,95.54 -64.369,0 -89.462,-41.341 -93.942,-97.184 -6.976,-3.005 -11.645,-15.552 -10.276,-33.528 1.453,-19.413 8.941,-34.874 17.088,-36.017 14.51,-45.899 48.052,-83.024 87.13,-83.024 39.06,0 72.604,37.125 87.12,83.024 8.153,1.143 15.628,16.604 17.09,36.017 C 12.471,-17.196 6.967,-3.022 0,0" /></g><g
           transform="translate(5279.957,4728.1328)"
           id="g132"><path
             id="path134"
             style="fill:#231f20;fill-opacity:1;fill-rule:nonzero;stroke:none"
             d="m 0,0 h 5.472 c 0,0 -3.959,32.241 9.89,39.222 C 37.66,50.466 46.625,18.021 92.213,22.799 137.788,27.563 135.139,0 135.139,0 h 4.496 c 0,0 1.81,11.063 6.368,13.788 16.567,9.927 23.808,-7.072 23.808,-7.072 0,0 0.385,6.201 0.385,10.729 0,74.339 -28.515,100.038 -63.852,112.396 -52.775,18.467 -72.698,-7.338 -72.698,-7.338 0,0 -21.987,-0.786 -42.136,-19.164 -19.086,-17.415 -26.145,-40.274 -22.963,-85.848 0.498,-7.194 -0.22,-9.813 -0.22,-11.29 6.474,10.472 16.523,12.518 24.04,7.927 C -2.545,11.024 0,0 0,0" /></g><g
           transform="translate(5347.082,4698.1304)"
           id="g136"><path
             id="path138"
             style="fill:#231f20;fill-opacity:1;fill-rule:nonzero;stroke:none"
             d="m 0,0 c 0,-4.902 -14.408,-27.049 -30.93,-27.049 -17.324,0 -29.583,9.738 -29.583,21.752 0,12.014 -2.729,21.752 29.583,21.752 C 1.385,16.455 0,12.013 0,0" /></g><g
           transform="translate(5359.3203,4698.1304)"
           id="g140"><path
             id="path142"
             style="fill:#231f20;fill-opacity:1;fill-rule:nonzero;stroke:none"
             d="m 0,0 c 0,-4.902 14.404,-27.049 30.926,-27.049 17.322,0 29.584,9.738 29.584,21.752 0,12.014 2.728,21.752 -29.584,21.752 C -1.386,16.455 0,12.013 0,0" /></g><path
           id="path144"
           style="fill:#231f20;fill-opacity:1;fill-rule:nonzero;stroke:none"
           d="m 5373.75,4695.764 h -41.076 v 6.722 h 41.076 z" /><g
           transform="translate(7187.417,4756.6709)"
           id="g146"><path
             id="path148"
             style="fill:#d0d0ce;fill-opacity:1;fill-rule:nonzero;stroke:none"
             d="m 0,0 c 15.313,-15.314 15.313,-40.374 0,-55.687 l -330.222,-330.221 c -15.315,-15.316 -40.375,-15.316 -55.687,0 l -209.94,209.937 c -15.312,15.315 -15.312,40.372 0,55.687 l 330.221,330.222 c 15.315,15.315 40.375,15.315 55.688,0 z" /></g><g
           transform="translate(6948.2207,4524.376)"
           id="g150"><path
             id="path152"
             style="fill:#32485a;fill-opacity:1;fill-rule:nonzero;stroke:none"
             d="M 0,0 C -0.951,0.95 -2.322,1.058 -3.063,0.317 L -3.115,0.263 -9.189,-5.811 C -9.35,-5.969 -9.402,-6.233 -9.242,-6.392 l 2.853,-2.852 c 0.158,-0.158 0.475,-0.158 0.633,0 l 6.073,6.073 0.053,0.055 C 1.111,-2.378 1.004,-1.004 0,0 m -16.32,10.087 -4.385,-4.384 c -0.158,-0.158 -0.158,-0.475 0.053,-0.686 l 2.009,-2.007 c 0.158,-0.16 0.42,-0.105 0.58,0.053 l 4.382,4.384 c 0.531,0.528 0.37,1.533 -0.368,2.27 -0.738,0.74 -1.744,0.9 -2.271,0.37 M 10.3,10.3 c 6.075,-6.074 6.075,-15.899 0.002,-21.974 l -0.052,-0.053 -7.08,-7.079 -8.873,-8.873 c -0.371,-0.371 -1.004,-0.368 -1.374,0 L -39.033,4.276 c -0.422,0.426 -0.422,1.059 -0.053,1.427 l 8.874,8.873 5.441,5.443 c 5.81,5.808 15.211,5.808 21.022,-0.002 1.532,-1.532 2.692,-3.329 3.328,-5.228 C 3.488,14.682 7.344,13.257 10.3,10.3" /></g><g
           transform="translate(6976.375,4553.5859)"
           id="g154"><path
             id="path156"
             style="fill:#32485a;fill-opacity:1;fill-rule:nonzero;stroke:none"
             d="M 0,0 C 0.527,0.526 0.37,1.108 -0.266,1.321 L -4.965,3.063 C -5.652,3.326 -5.969,3.008 -5.705,2.322 l 1.744,-4.699 c 0.21,-0.636 0.793,-0.793 1.32,-0.266 z m -21.285,22.447 c 0.42,0.425 1.16,0.53 1.637,0.37 L 26.357,4.595 C 26.833,4.437 26.938,3.909 26.568,3.539 L 18.012,-5.02 c -0.37,-0.37 -1.109,-0.58 -1.639,-0.37 l -2.482,0.901 c -0.528,0.21 -1.266,0 -1.637,-0.37 L 2.217,-14.895 c -0.367,-0.37 -0.58,-1.11 -0.367,-1.64 l 0.898,-2.481 c 0.209,-0.528 0.052,-1.215 -0.371,-1.638 l -8.559,-8.556 c -0.367,-0.371 -0.898,-0.263 -1.055,0.212 l -18.222,46.005 c -0.158,0.475 -0.053,1.216 0.369,1.639 z" /></g><g
           transform="translate(7000.9355,4621.8813)"
           id="g158"><path
             id="path160"
             style="fill:#32485a;fill-opacity:1;fill-rule:nonzero;stroke:none"
             d="m 0,0 c 0.424,0.423 1.059,0.423 1.479,0 l 31.959,-31.956 c 0.367,-0.37 0.367,-1.005 -0.053,-1.426 l -8.559,-8.558 c -0.37,-0.37 -1.108,-0.581 -1.689,-0.421 l -21.235,5.598 c -0.528,0.108 -0.685,-0.052 -0.263,-0.475 l 13.257,-13.258 c 0.37,-0.368 0.372,-1.004 -0.052,-1.426 l -8.558,-8.556 c -0.37,-0.37 -1.003,-0.37 -1.374,0 l -31.955,31.956 c -0.421,0.42 -0.423,1.056 -0.053,1.426 l 8.556,8.558 c 0.423,0.421 1.163,0.631 1.744,0.473 l 21.234,-5.598 c 0.58,-0.16 0.687,0.051 0.264,0.476 L -8.503,-9.984 c -0.423,0.422 -0.423,1.058 -0.053,1.426 z" /></g><g
           transform="translate(7016.2012,4637.146)"
           id="g162"><path
             id="path164"
             style="fill:#32485a;fill-opacity:1;fill-rule:nonzero;stroke:none"
             d="m 0,0 c 0.422,0.423 1.058,0.423 1.479,0 l 9.033,-9.034 c 0.37,-0.367 0.58,-0.262 0.475,0.266 L 7.659,6.497 c -0.105,0.53 0.105,1.268 0.529,1.691 l 9.613,9.614 c 0.369,0.37 0.791,0.263 0.898,-0.265 l 4.912,-23.823 c 0.106,-0.526 0.686,-1.109 1.162,-1.266 l 26.885,-6.391 c 0.529,-0.105 0.634,-0.531 0.211,-0.951 l -9.612,-9.614 c -0.37,-0.37 -1.109,-0.581 -1.639,-0.476 l -17.377,3.962 c -0.581,0.157 -0.688,-0.053 -0.264,-0.474 l 10.459,-10.46 c 0.369,-0.37 0.369,-1.003 -0.052,-1.426 l -8.558,-8.558 c -0.371,-0.37 -1.004,-0.368 -1.375,0 L -8.504,-9.982 c -0.42,0.423 -0.423,1.056 -0.053,1.426 z" /></g><g
           transform="translate(7078.8271,4664.7861)"
           id="g166"><path
             id="path168"
             style="fill:#d0d0ce;fill-opacity:1;fill-rule:nonzero;stroke:none"
             d="m 0,0 -169.287,-169.287 -2.784,2.784 L -2.784,2.784 Z" /></g><g
           transform="translate(7067.1328,4676.4805)"
           id="g170"><path
             id="path172"
             style="fill:#d0d0ce;fill-opacity:1;fill-rule:nonzero;stroke:none"
             d="m 0,0 -169.287,-169.287 -2.784,2.784 L -2.784,2.784 Z" /></g><g
           transform="translate(7091.0791,4652.5342)"
           id="g174"><path
             id="path176"
             style="fill:#d0d0ce;fill-opacity:1;fill-rule:nonzero;stroke:none"
             d="m 0,0 -169.29,-169.287 -2.783,2.784 L -2.784,2.784 Z" /></g><g
           id="g178"><g
             id="g180" /><g
             id="g192"><g
               style="opacity:0.19999701"
               id="g190"
               clip-path="url(#clipPath184)"><g
                 id="g188"
                 transform="translate(6591.5684,4636.3872)"><path
                   id="path186"
                   style="fill:#565759;fill-opacity:1;fill-rule:nonzero;stroke:none"
                   d="M 0,0 9.417,9.417 607.156,96.201 C 608.227,84.895 604.457,73.206 595.849,64.597 L 265.627,-265.625 c -15.315,-15.315 -40.375,-15.315 -55.688,0 L 0,-55.687 C -15.313,-40.372 -15.313,-15.315 0,0" /></g></g></g></g><g
           transform="translate(7033.1641,4910.9219)"
           id="g194"><path
             id="path196"
             style="fill:#191d20;fill-opacity:1;fill-rule:nonzero;stroke:none"
             d="m 0,0 -385.909,-385.908 -51.232,51.231 385.909,385.909 z" /></g><g
           transform="translate(6831.0195,4568.4482)"
           id="g198"><path
             id="path200"
             style="fill:#aeb2b0;fill-opacity:1;fill-rule:nonzero;stroke:none"
             d="m 0,0 c 9.189,-9.189 9.189,-24.225 0,-33.412 l -59.025,-59.026 c -9.19,-9.189 -24.226,-9.189 -33.413,0 l -37.311,37.309 c -9.189,9.189 -9.189,24.225 0,33.412 l 59.028,59.026 c 9.19,9.189 24.223,9.189 33.412,0 z" /></g><g
           transform="translate(6766.4258,4481.5781)"
           id="g202"><path
             id="path204"
             style="fill:#eff4f3;fill-opacity:1;fill-rule:nonzero;stroke:none"
             d="m 0,0 c -6.143,-6.142 -16.134,-6.142 -22.275,0 l -37.312,37.31 c -6.14,6.141 -6.14,16.132 0,22.274 l 59.028,59.027 c 6.143,6.142 16.134,6.142 22.276,0 L 59.026,81.302 c 6.142,-6.14 6.142,-16.133 0,-22.275 z" /></g><g
           transform="translate(7054.8809,4829.0625)"
           id="g206"><path
             id="path208"
             style="fill:#fdfeff;fill-opacity:1;fill-rule:nonzero;stroke:none"
             d="m 0,0 -226.087,-226.089 -35.641,35.64 226.089,226.09 z" /></g><g
           transform="translate(6854.1318,4584.3213)"
           id="g210"><path
             id="path212"
             style="fill:#32485a;fill-opacity:1;fill-rule:nonzero;stroke:none"
             d="m 0,0 c 20.632,20.631 41.264,41.263 61.897,61.895 35.038,35.037 70.073,70.074 105.109,105.111 11.527,11.524 23.053,23.052 34.58,34.579 3.591,3.589 -1.978,9.157 -5.568,5.568 C 175.384,186.521 154.752,165.888 134.12,145.254 99.083,110.219 64.046,75.183 29.009,40.146 17.481,28.618 5.957,17.093 -5.57,5.568 -9.161,1.975 -3.591,-3.594 0,0" /></g><g
           transform="translate(6871.6738,4566.7773)"
           id="g214"><path
             id="path216"
             style="fill:#32485a;fill-opacity:1;fill-rule:nonzero;stroke:none"
             d="m 0,0 -2.785,2.784 192.676,192.676 2.784,-2.784 z" /></g><g
           transform="translate(6888.9355,4549.5146)"
           id="g218"><path
             id="path220"
             style="fill:#32485a;fill-opacity:1;fill-rule:nonzero;stroke:none"
             d="m 0,0 -2.784,2.784 192.676,192.676 2.784,-2.784 z" /></g><g
           transform="translate(6831.0195,4568.4482)"
           id="g222"><path
             id="path224"
             style="fill:#eff4f3;fill-opacity:1;fill-rule:nonzero;stroke:none"
             d="m 0,0 c 9.189,-9.189 9.189,-24.225 0,-33.412 l -59.025,-59.026 c -9.19,-9.189 -24.226,-9.189 -33.413,0 l -37.311,37.309 c -9.189,9.189 -9.189,24.225 0,33.412 l 59.028,59.026 c 9.19,9.189 24.223,9.189 33.412,0 z" /></g><g
           transform="translate(7276.5156,4465.9844)"
           id="g226"><path
             id="path228"
             style="fill:#3b899f;fill-opacity:1;fill-rule:nonzero;stroke:none"
             d="m 0,0 c 15.313,-15.314 15.313,-40.372 0,-55.687 l -330.223,-330.221 c -15.314,-15.316 -40.373,-15.316 -55.686,0 l -209.941,209.937 c -15.312,15.316 -15.312,40.375 0,55.687 l 330.223,330.222 c 15.314,15.315 40.374,15.315 55.687,0 z" /></g><g
           transform="translate(6680.5195,4345.5547)"
           id="g230"><path
             id="path232"
             style="fill:#3f93aa;fill-opacity:1;fill-rule:nonzero;stroke:none"
             d="M 0,0 9.418,9.417 607.155,96.2 c 1.07,-11.305 -2.697,-22.995 -11.307,-31.603 L 265.625,-265.625 c -15.314,-15.314 -40.225,-15.169 -55.538,0.146 L 0.146,-55.541 C -15.166,-40.226 -15.314,-15.315 0,0" /></g><g
           transform="translate(7049.3125,4662.002)"
           id="g234"><path
             id="path236"
             style="fill:#32485a;fill-opacity:1;fill-rule:nonzero;stroke:none"
             d="m 0,0 -123.623,-123.626 -1.671,1.673 L -1.671,1.671 Z" /></g><g
           transform="translate(6844.1953,4199.9941)"
           id="g238"><path
             id="path240"
             style="fill:#e26c30;fill-opacity:1;fill-rule:nonzero;stroke:none"
             d="m 0,0 c 0.919,-0.919 0.61,-1.596 -0.686,-1.502 l -39.093,2.807 c -1.297,0.093 -2.433,1.23 -2.527,2.526 l -2.806,39.092 c -0.092,1.298 0.583,1.604 1.501,0.685 z" /></g><g
           transform="translate(6932.0918,4159.9854)"
           id="g242"><path
             id="path244"
             style="fill:#eff4f3;fill-opacity:1;fill-rule:nonzero;stroke:none"
             d="m 0,0 -2.784,2.784 163.163,163.164 2.785,-2.784 z" /></g><g
           transform="translate(6954.3672,4137.7129)"
           id="g246"><path
             id="path248"
             style="fill:#eff4f3;fill-opacity:1;fill-rule:nonzero;stroke:none"
             d="m 0,0 -2.784,2.783 157.593,157.594 2.784,-2.784 z" /></g><g
           transform="translate(2057.5488,1634.7148)"
           id="g250"><path
             id="path252"
             style="fill:#40adbf;fill-opacity:1;fill-rule:evenodd;stroke:none"
             d="M 0,0 V 36.418 H -718.549 V -0.166 c 2.432,0.092 2.209,0.166 3.036,0.166 10.718,0 19.723,-8.688 19.723,-19.416 0,-10.729 -9.152,-19.438 -19.873,-19.438 -0.826,0 -0.454,0.075 -2.886,0.188 v -24.621 c 2.432,0.101 2.209,0.166 3.036,0.166 10.718,0 19.723,-8.696 19.723,-19.406 0,-10.729 -9.152,-19.426 -19.873,-19.426 -0.826,0 -0.454,0.062 -2.886,0.16 v -24.615 c 2.432,0.111 2.209,0.185 3.036,0.185 10.718,0 19.723,-8.707 19.723,-19.423 0,-10.721 -9.152,-19.427 -19.873,-19.427 -0.826,0 -0.454,0.077 -2.886,0.169 v -24.616 c 2.432,0.102 2.209,0.166 3.036,0.166 10.718,0 19.723,-8.687 19.723,-19.416 0,-10.724 -9.152,-19.424 -19.873,-19.424 -0.826,0 -0.454,0.067 -2.886,0.178 v -24.615 c 2.432,0.092 2.209,0.166 3.036,0.166 10.718,0 19.723,-8.696 19.723,-19.412 0,-10.732 -9.152,-19.429 -19.873,-19.429 -0.826,0 -0.454,0.068 -2.886,0.169 v -36.578 H 0 v 36.409 c -9.709,0 -19.41,8.697 -19.41,19.429 0,10.716 9.701,19.412 19.41,19.412 v 24.271 c -9.709,0 -19.41,8.7 -19.41,19.424 0,10.729 9.701,19.416 19.41,19.416 v 24.281 c -9.709,0 -19.41,8.706 -19.41,19.427 0,10.716 9.701,19.423 19.41,19.423 v 24.27 c -9.709,0 -19.41,8.697 -19.41,19.426 0,10.71 9.701,19.406 19.41,19.406 v 24.267 c -9.709,0 -19.41,8.709 -19.41,19.438 C -19.41,-8.688 -9.709,0 0,0" /></g><g
           transform="translate(1449.4536,1614.8311)"
           id="g254"><path
             id="path256"
             style="fill:#f2bf2a;fill-opacity:1;fill-rule:evenodd;stroke:none"
             d="m 0,0 4.39,-8.888 9.8,-1.41 -7.099,-6.924 1.68,-9.764 -8.771,4.614 -8.772,-4.614 1.681,9.764 -7.101,6.924 9.802,1.41 z" /></g><g
           transform="translate(1498.0117,1614.8311)"
           id="g258"><path
             id="path260"
             style="fill:#f2bf2a;fill-opacity:1;fill-rule:evenodd;stroke:none"
             d="m 0,0 4.39,-8.888 9.801,-1.41 -7.1,-6.924 1.68,-9.764 -8.771,4.614 -8.78,-4.614 1.682,9.764 -7.103,6.924 9.811,1.41 z" /></g><g
           transform="translate(1548.9941,1614.8311)"
           id="g262"><path
             id="path264"
             style="fill:#f2bf2a;fill-opacity:1;fill-rule:evenodd;stroke:none"
             d="m 0,0 4.37,-8.888 9.811,-1.41 -7.092,-6.924 1.671,-9.764 -8.76,4.614 -8.783,-4.614 1.672,9.764 -7.092,6.924 9.802,1.41 z" /></g><g
           transform="translate(1598.7495,1614.8311)"
           id="g266"><path
             id="path268"
             style="fill:#f2bf2a;fill-opacity:1;fill-rule:evenodd;stroke:none"
             d="m 0,0 4.39,-8.888 9.798,-1.41 -7.1,-6.924 1.681,-9.764 -8.769,4.614 -8.772,-4.614 1.671,9.764 -7.091,6.924 9.802,1.41 z" /></g><g
           transform="translate(1648.5127,1614.8311)"
           id="g270"><path
             id="path272"
             style="fill:#f2bf2a;fill-opacity:1;fill-rule:evenodd;stroke:none"
             d="m 0,0 4.39,-8.888 9.802,-1.41 -7.101,-6.924 1.681,-9.764 -8.772,4.614 -8.771,-4.614 1.67,9.764 -7.09,6.924 9.801,1.41 z" /></g><g
           transform="translate(1698.27,1614.8311)"
           id="g274"><path
             id="path276"
             style="fill:#f2bf2a;fill-opacity:1;fill-rule:evenodd;stroke:none"
             d="m 0,0 4.4,-8.888 9.802,-1.41 -7.105,-6.924 1.681,-9.764 -8.778,4.614 -8.771,-4.614 1.678,9.764 -7.097,6.924 9.809,1.41 z" /></g><g
           transform="translate(1748.041,1614.8311)"
           id="g278"><path
             id="path280"
             style="fill:#f2bf2a;fill-opacity:1;fill-rule:evenodd;stroke:none"
             d="m 0,0 4.384,-8.888 9.807,-1.41 -7.086,-6.924 1.668,-9.764 -8.773,4.614 -8.768,-4.614 1.672,9.764 -7.102,6.924 9.811,1.41 z" /></g><g
           transform="translate(1797.8071,1614.8311)"
           id="g282"><path
             id="path284"
             style="fill:#f2bf2a;fill-opacity:1;fill-rule:evenodd;stroke:none"
             d="m 0,0 4.375,-8.888 9.808,-1.41 -7.081,-6.924 1.669,-9.764 -8.771,4.614 -8.768,-4.614 1.669,9.764 -7.102,6.924 9.805,1.41 z" /></g><g
           transform="translate(1847.5737,1614.8311)"
           id="g286"><path
             id="path288"
             style="fill:#f2bf2a;fill-opacity:1;fill-rule:evenodd;stroke:none"
             d="m 0,0 4.38,-8.888 9.799,-1.41 -7.099,-6.924 1.693,-9.764 -8.773,4.614 -8.771,-4.614 1.669,9.764 -7.081,6.924 9.793,1.41 z" /></g><g
           transform="translate(1897.3398,1614.8311)"
           id="g290"><path
             id="path292"
             style="fill:#f2bf2a;fill-opacity:1;fill-rule:evenodd;stroke:none"
             d="m 0,0 4.377,-8.888 9.806,-1.41 -7.102,-6.924 1.69,-9.764 -8.771,4.614 -8.773,-4.614 1.668,9.764 -7.096,6.924 9.808,1.41 z" /></g><g
           transform="translate(1947.103,1614.8311)"
           id="g294"><path
             id="path296"
             style="fill:#f2bf2a;fill-opacity:1;fill-rule:evenodd;stroke:none"
             d="m 0,0 4.384,-8.888 9.808,-1.41 -7.099,-6.924 1.678,-9.764 -8.771,4.614 -8.78,-4.614 1.681,9.764 -7.102,6.924 9.811,1.41 z" /></g><g
           transform="translate(1449.4536,1395.9248)"
           id="g298"><path
             id="path300"
             style="fill:#f2bf2a;fill-opacity:1;fill-rule:evenodd;stroke:none"
             d="m 0,0 4.39,-8.882 9.8,-1.431 -7.099,-6.923 1.68,-9.765 -8.771,4.614 -8.772,-4.614 1.681,9.765 -7.101,6.923 9.802,1.431 z" /></g><g
           transform="translate(1498.0117,1395.9248)"
           id="g302"><path
             id="path304"
             style="fill:#f2bf2a;fill-opacity:1;fill-rule:evenodd;stroke:none"
             d="m 0,0 4.39,-8.882 9.801,-1.431 -7.1,-6.923 1.68,-9.765 -8.771,4.614 -8.78,-4.614 1.682,9.765 -7.103,6.923 9.811,1.431 z" /></g><g
           transform="translate(1548.9941,1395.9248)"
           id="g306"><path
             id="path308"
             style="fill:#f2bf2a;fill-opacity:1;fill-rule:evenodd;stroke:none"
             d="m 0,0 4.37,-8.882 9.811,-1.431 -7.092,-6.923 1.671,-9.765 -8.76,4.614 -8.783,-4.614 1.672,9.765 -7.092,6.923 9.802,1.431 z" /></g><g
           transform="translate(1598.7495,1395.9248)"
           id="g310"><path
             id="path312"
             style="fill:#f2bf2a;fill-opacity:1;fill-rule:evenodd;stroke:none"
             d="m 0,0 4.39,-8.882 9.798,-1.431 -7.1,-6.923 1.681,-9.765 -8.769,4.614 -8.772,-4.614 1.671,9.765 -7.091,6.923 9.802,1.431 z" /></g><g
           transform="translate(1648.5127,1395.9248)"
           id="g314"><path
             id="path316"
             style="fill:#f2bf2a;fill-opacity:1;fill-rule:evenodd;stroke:none"
             d="m 0,0 4.39,-8.882 9.802,-1.431 -7.101,-6.923 1.681,-9.765 -8.772,4.614 -8.771,-4.614 1.67,9.765 -7.09,6.923 9.801,1.431 z" /></g><g
           transform="translate(1698.27,1395.9248)"
           id="g318"><path
             id="path320"
             style="fill:#f2bf2a;fill-opacity:1;fill-rule:evenodd;stroke:none"
             d="m 0,0 4.4,-8.882 9.802,-1.431 -7.105,-6.923 1.681,-9.765 -8.778,4.614 -8.771,-4.614 1.678,9.765 -7.097,6.923 9.809,1.431 z" /></g><g
           transform="translate(1748.041,1395.9248)"
           id="g322"><path
             id="path324"
             style="fill:#f2bf2a;fill-opacity:1;fill-rule:evenodd;stroke:none"
             d="m 0,0 4.384,-8.882 9.807,-1.431 -7.086,-6.923 1.668,-9.765 -8.773,4.614 -8.768,-4.614 1.672,9.765 -7.102,6.923 9.811,1.431 z" /></g><g
           transform="translate(1797.8071,1395.9248)"
           id="g326"><path
             id="path328"
             style="fill:#f2bf2a;fill-opacity:1;fill-rule:evenodd;stroke:none"
             d="m 0,0 4.375,-8.882 9.808,-1.431 -7.081,-6.923 1.669,-9.765 -8.771,4.614 -8.768,-4.614 1.669,9.765 -7.102,6.923 9.805,1.431 z" /></g><g
           transform="translate(1847.5737,1395.9248)"
           id="g330"><path
             id="path332"
             style="fill:#f2bf2a;fill-opacity:1;fill-rule:evenodd;stroke:none"
             d="m 0,0 4.38,-8.882 9.799,-1.431 -7.099,-6.923 1.693,-9.765 -8.773,4.614 -8.771,-4.614 1.669,9.765 -7.081,6.923 9.793,1.431 z" /></g><g
           transform="translate(1897.3398,1395.9248)"
           id="g334"><path
             id="path336"
             style="fill:#f2bf2a;fill-opacity:1;fill-rule:evenodd;stroke:none"
             d="m 0,0 4.377,-8.882 9.806,-1.431 -7.102,-6.923 1.69,-9.765 -8.771,4.614 -8.773,-4.614 1.668,9.765 -7.096,6.923 9.808,1.431 z" /></g><g
           transform="translate(1947.103,1395.9248)"
           id="g338"><path
             id="path340"
             style="fill:#f2bf2a;fill-opacity:1;fill-rule:evenodd;stroke:none"
             d="m 0,0 4.384,-8.882 9.808,-1.431 -7.099,-6.923 1.678,-9.765 -8.771,4.614 -8.78,-4.614 1.681,9.765 -7.102,6.923 9.811,1.431 z" /></g><g
           transform="translate(6444.0176,1245.7559)"
           id="g342"><path
             id="path344"
             style="fill:#f2bf2a;fill-opacity:1;fill-rule:evenodd;stroke:none"
             d="M 0,0 V 46.906 H -925.49 V -0.215 c 3.132,0.119 2.844,0.215 3.91,0.215 13.805,0 25.405,-11.189 25.405,-25.008 0,-13.818 -11.788,-25.036 -25.596,-25.036 -1.066,0 -0.587,0.096 -3.719,0.241 v -31.711 c 3.132,0.131 2.844,0.213 3.91,0.213 13.805,0 25.405,-11.2 25.405,-24.995 0,-13.818 -11.788,-25.02 -25.596,-25.02 -1.066,0 -0.587,0.081 -3.719,0.207 v -31.704 c 3.132,0.143 2.844,0.239 3.91,0.239 13.805,0 25.405,-11.216 25.405,-25.018 0,-13.808 -11.788,-25.021 -25.596,-25.021 -1.066,0 -0.587,0.098 -3.719,0.217 V -244.1 c 3.132,0.131 2.844,0.213 3.91,0.213 13.805,0 25.405,-11.189 25.405,-25.008 0,-13.812 -11.788,-25.019 -25.596,-25.019 -1.066,0 -0.587,0.087 -3.719,0.23 v -31.704 c 3.132,0.117 2.844,0.213 3.91,0.213 13.805,0 25.405,-11.2 25.405,-25.002 0,-13.823 -11.788,-25.025 -25.596,-25.025 -1.066,0 -0.587,0.087 -3.719,0.218 v -47.112 H 0 v 46.894 c -12.506,0 -25.001,11.202 -25.001,25.025 0,13.802 12.495,25.002 25.001,25.002 v 31.261 c -12.506,0 -25.001,11.207 -25.001,25.019 0,13.819 12.495,25.008 25.001,25.008 v 31.274 c -12.506,0 -25.001,11.213 -25.001,25.021 0,13.802 12.495,25.018 25.001,25.018 v 31.258 c -12.506,0 -25.001,11.202 -25.001,25.02 0,13.795 12.495,24.995 25.001,24.995 v 31.257 c -12.506,0 -25.001,11.218 -25.001,25.036 C -25.001,-11.189 -12.506,0 0,0" /></g><g
           transform="translate(5660.791,1220.1445)"
           id="g346"><path
             id="path348"
             style="fill:#40adbf;fill-opacity:1;fill-rule:evenodd;stroke:none"
             d="M 0,0 5.654,-11.446 18.277,-13.262 9.135,-22.18 11.298,-34.757 0,-28.814 l -11.297,-5.943 2.164,12.577 -9.146,8.918 12.625,1.816 z" /></g><g
           transform="translate(5723.334,1220.1445)"
           id="g350"><path
             id="path352"
             style="fill:#40adbf;fill-opacity:1;fill-rule:evenodd;stroke:none"
             d="M 0,0 5.654,-11.446 18.278,-13.262 9.135,-22.18 11.297,-34.757 0,-28.814 l -11.307,-5.943 2.166,12.577 -9.149,8.918 12.636,1.816 z" /></g><g
           transform="translate(5789,1220.1445)"
           id="g354"><path
             id="path356"
             style="fill:#40adbf;fill-opacity:1;fill-rule:evenodd;stroke:none"
             d="M 0,0 5.627,-11.446 18.264,-13.262 9.131,-22.18 11.282,-34.757 0,-28.814 l -11.313,-5.943 2.153,12.577 -9.135,8.918 12.627,1.816 z" /></g><g
           transform="translate(5853.0859,1220.1445)"
           id="g358"><path
             id="path360"
             style="fill:#40adbf;fill-opacity:1;fill-rule:evenodd;stroke:none"
             d="M 0,0 5.653,-11.446 18.271,-13.262 9.129,-22.18 11.294,-34.757 0,-28.814 l -11.3,-5.943 2.152,12.577 -9.133,8.918 12.625,1.816 z" /></g><g
           transform="translate(5917.1797,1220.1445)"
           id="g362"><path
             id="path364"
             style="fill:#40adbf;fill-opacity:1;fill-rule:evenodd;stroke:none"
             d="M 0,0 5.654,-11.446 18.279,-13.262 9.133,-22.18 11.298,-34.757 0,-28.814 l -11.298,-5.943 2.152,12.577 -9.133,8.918 12.625,1.816 z" /></g><g
           transform="translate(5981.2656,1220.1445)"
           id="g366"><path
             id="path368"
             style="fill:#40adbf;fill-opacity:1;fill-rule:evenodd;stroke:none"
             d="M 0,0 5.668,-11.446 18.294,-13.262 9.141,-22.18 11.308,-34.757 0,-28.814 l -11.295,-5.943 2.16,12.577 -9.14,8.918 12.632,1.816 z" /></g><g
           transform="translate(6045.3711,1220.1445)"
           id="g370"><path
             id="path372"
             style="fill:#40adbf;fill-opacity:1;fill-rule:evenodd;stroke:none"
             d="m 0,0 5.646,-11.446 12.633,-1.816 -9.127,-8.918 2.15,-12.577 -11.302,5.943 -11.292,-5.943 2.153,12.577 -9.148,8.918 12.637,1.816 z" /></g><g
           transform="translate(6109.4688,1220.1445)"
           id="g374"><path
             id="path376"
             style="fill:#40adbf;fill-opacity:1;fill-rule:evenodd;stroke:none"
             d="M 0,0 5.636,-11.446 18.27,-13.262 9.148,-22.18 11.299,-34.757 0,-28.814 l -11.293,-5.943 2.152,12.577 -9.148,8.918 12.629,1.816 z" /></g><g
           transform="translate(6173.5703,1220.1445)"
           id="g378"><path
             id="path380"
             style="fill:#40adbf;fill-opacity:1;fill-rule:evenodd;stroke:none"
             d="M 0,0 5.643,-11.446 18.262,-13.262 9.119,-22.18 11.301,-34.757 0,-28.814 l -11.298,-5.943 2.15,12.577 -9.122,8.918 12.614,1.816 z" /></g><g
           transform="translate(6237.668,1220.1445)"
           id="g382"><path
             id="path384"
             style="fill:#40adbf;fill-opacity:1;fill-rule:evenodd;stroke:none"
             d="M 0,0 5.639,-11.446 18.268,-13.262 9.119,-22.18 11.297,-34.757 0,-28.814 l -11.3,-5.943 2.149,12.577 -9.14,8.918 12.633,1.816 z" /></g><g
           transform="translate(6301.7637,1220.1445)"
           id="g386"><path
             id="path388"
             style="fill:#40adbf;fill-opacity:1;fill-rule:evenodd;stroke:none"
             d="M 0,0 5.646,-11.446 18.279,-13.262 9.135,-22.18 11.296,-34.757 0,-28.814 l -11.31,-5.943 2.165,12.577 -9.146,8.918 12.635,1.816 z" /></g><g
           transform="translate(5660.791,938.1934)"
           id="g390"><path
             id="path392"
             style="fill:#40adbf;fill-opacity:1;fill-rule:evenodd;stroke:none"
             d="m 0,0 5.654,-11.438 12.623,-1.844 -9.142,-8.917 2.163,-12.576 -11.298,5.943 -11.297,-5.943 2.164,12.576 -9.146,8.917 12.625,1.844 z" /></g><g
           transform="translate(5723.334,938.1934)"
           id="g394"><path
             id="path396"
             style="fill:#40adbf;fill-opacity:1;fill-rule:evenodd;stroke:none"
             d="m 0,0 5.654,-11.438 12.624,-1.844 -9.143,-8.917 2.162,-12.576 -11.297,5.943 -11.307,-5.943 2.166,12.576 -9.149,8.917 12.636,1.844 z" /></g><g
           transform="translate(5789,938.1934)"
           id="g398"><path
             id="path400"
             style="fill:#40adbf;fill-opacity:1;fill-rule:evenodd;stroke:none"
             d="m 0,0 5.627,-11.438 12.637,-1.844 -9.133,-8.917 2.151,-12.576 -11.282,5.943 -11.313,-5.943 2.153,12.576 -9.135,8.917 12.627,1.844 z" /></g><g
           transform="translate(5853.0859,938.1934)"
           id="g402"><path
             id="path404"
             style="fill:#40adbf;fill-opacity:1;fill-rule:evenodd;stroke:none"
             d="m 0,0 5.653,-11.438 12.618,-1.844 -9.142,-8.917 2.165,-12.576 -11.294,5.943 -11.3,-5.943 2.152,12.576 -9.133,8.917 12.625,1.844 z" /></g><g
           transform="translate(5917.1797,938.1934)"
           id="g406"><path
             id="path408"
             style="fill:#40adbf;fill-opacity:1;fill-rule:evenodd;stroke:none"
             d="m 0,0 5.654,-11.438 12.625,-1.844 -9.146,-8.917 2.165,-12.576 -11.298,5.943 -11.298,-5.943 2.152,12.576 -9.133,8.917 12.625,1.844 z" /></g><g
           transform="translate(5981.2656,938.1934)"
           id="g410"><path
             id="path412"
             style="fill:#40adbf;fill-opacity:1;fill-rule:evenodd;stroke:none"
             d="m 0,0 5.668,-11.438 12.626,-1.844 -9.153,-8.917 2.167,-12.576 -11.308,5.943 -11.295,-5.943 2.16,12.576 -9.14,8.917 12.632,1.844 z" /></g><g
           transform="translate(6045.3711,938.1934)"
           id="g414"><path
             id="path416"
             style="fill:#40adbf;fill-opacity:1;fill-rule:evenodd;stroke:none"
             d="m 0,0 5.646,-11.438 12.633,-1.844 -9.127,-8.917 2.15,-12.576 -11.302,5.943 -11.292,-5.943 2.153,12.576 -9.148,8.917 12.637,1.844 z" /></g><g
           transform="translate(6109.4688,938.1934)"
           id="g418"><path
             id="path420"
             style="fill:#40adbf;fill-opacity:1;fill-rule:evenodd;stroke:none"
             d="M 0,0 5.636,-11.438 18.27,-13.282 9.148,-22.199 11.299,-34.775 0,-28.832 l -11.293,-5.943 2.152,12.576 -9.148,8.917 12.629,1.844 z" /></g><g
           transform="translate(6173.5703,938.1934)"
           id="g422"><path
             id="path424"
             style="fill:#40adbf;fill-opacity:1;fill-rule:evenodd;stroke:none"
             d="m 0,0 5.643,-11.438 12.619,-1.844 -9.143,-8.917 2.182,-12.576 -11.301,5.943 -11.298,-5.943 2.15,12.576 -9.122,8.917 12.614,1.844 z" /></g><g
           transform="translate(6237.668,938.1934)"
           id="g426"><path
             id="path428"
             style="fill:#40adbf;fill-opacity:1;fill-rule:evenodd;stroke:none"
             d="m 0,0 5.639,-11.438 12.629,-1.844 -9.149,-8.917 2.178,-12.576 -11.297,5.943 -11.3,-5.943 2.149,12.576 -9.14,8.917 12.633,1.844 z" /></g><g
           transform="translate(6301.7637,938.1934)"
           id="g430"><path
             id="path432"
             style="fill:#40adbf;fill-opacity:1;fill-rule:evenodd;stroke:none"
             d="m 0,0 5.646,-11.438 12.633,-1.844 -9.144,-8.917 2.161,-12.576 -11.296,5.943 -11.31,-5.943 2.165,12.576 -9.146,8.917 12.635,1.844 z" /></g><g
           transform="translate(2057.5488,2296.4785)"
           id="g434"><path
             id="path436"
             style="fill:#40adbf;fill-opacity:1;fill-rule:nonzero;stroke:none"
             d="m 0,0 c 0,-39.765 -32.235,-72 -72,-72 h -574.549 c -39.764,0 -72,32.235 -72,72 v 204.035 c 0,39.765 32.236,72 72,72 H -72 c 39.765,0 72,-32.235 72,-72 z" /></g><g
           transform="translate(1784.4053,2398.4961)"
           id="g438"><path
             id="path440"
             style="fill:#f8f8f8;fill-opacity:1;fill-rule:nonzero;stroke:none"
             d="m 0,0 c 0,-47.569 -38.562,-86.132 -86.131,-86.132 -47.569,0 -86.131,38.563 -86.131,86.132 0,47.569 38.562,86.132 86.131,86.132 C -38.562,86.132 0,47.569 0,0" /></g><g
           transform="translate(1713.2725,2384.9141)"
           id="g442"><path
             id="path444"
             style="fill:#40adbf;fill-opacity:1;fill-rule:nonzero;stroke:none"
             d="m 0,0 c -1.028,2.445 -3.346,3.219 -8.11,4.377 v -14.805 c 3.089,0.775 5.793,1.546 7.595,4.635 0.903,1.545 1.031,2.574 1.031,3.476 C 0.516,-1.545 0.256,-0.772 0,0 m -20.47,42.227 c -0.384,0 -2.96,-0.387 -4.634,-1.161 -2.059,-1.03 -4.119,-3.088 -4.119,-5.534 0,-1.676 0.902,-2.961 2.06,-3.862 1.803,-1.287 4.636,-1.673 6.693,-2.061 z M 9.528,-25.49 c -5.924,-2.961 -11.33,-3.605 -17.638,-4.377 v -13.001 h -12.36 v 13.001 c -20.34,2.446 -24.588,4.892 -34.63,10.942 l 13.647,16.222 4.249,-2.704 c 7.081,-4.505 13.517,-4.892 16.734,-5.279 V 6.31 c -2.96,0.641 -5.92,1.415 -8.883,2.187 -9.14,2.317 -18.022,5.278 -22.27,14.676 -0.773,1.802 -2.059,5.149 -2.059,10.043 0,4.89 1.673,16.605 13.775,23.557 8.108,4.634 16.22,4.634 19.437,4.894 v 8.366 h 12.36 v -8.755 c 3.089,-0.386 6.308,-0.77 9.397,-1.543 9.657,-2.317 15.062,-6.18 18.538,-8.37 L 6.438,35.662 C 5.021,36.689 3.604,37.72 2.061,38.62 -1.802,40.939 -3.861,41.324 -8.11,41.84 V 27.421 c 3.604,-0.515 10.814,-1.16 19.181,-5.664 4.12,-2.318 14.033,-8.24 14.033,-22.142 0,-5.15 -1.932,-18.411 -15.576,-25.105" /></g><g
           transform="translate(7556.7617,916.4326)"
           id="g446"><path
             id="path448"
             style="fill:#40adbf;fill-opacity:1;fill-rule:nonzero;stroke:none"
             d="m 0,0 c 0,-54.198 -43.936,-98.134 -98.134,-98.134 h -783.095 c -54.199,0 -98.134,43.936 -98.134,98.134 v 278.095 c 0,54.199 43.935,98.134 98.134,98.134 H -98.134 C -43.936,376.229 0,332.294 0,278.095 Z" /></g><g
           transform="translate(7184.4736,1055.4805)"
           id="g450"><path
             id="path452"
             style="fill:#f8f8f8;fill-opacity:1;fill-rule:nonzero;stroke:none"
             d="m 0,0 c 0,-64.836 -52.558,-117.395 -117.394,-117.395 -64.835,0 -117.394,52.559 -117.394,117.395 0,64.836 52.559,117.395 117.394,117.395 C -52.558,117.395 0,64.836 0,0" /></g><g
           transform="translate(7087.5215,1036.9688)"
           id="g454"><path
             id="path456"
             style="fill:#40adbf;fill-opacity:1;fill-rule:nonzero;stroke:none"
             d="m 0,0 c -1.4,3.332 -4.559,4.387 -11.055,5.966 v -20.177 c 4.211,1.055 7.897,2.106 10.354,6.315 1.23,2.106 1.404,3.509 1.404,4.738 C 0.703,-2.106 0.348,-1.053 0,0 m -27.9,57.555 c -0.524,0 -4.034,-0.528 -6.317,-1.583 -2.805,-1.404 -5.611,-4.209 -5.611,-7.54 0,-2.286 1.226,-4.038 2.806,-5.267 2.456,-1.754 6.318,-2.278 9.122,-2.808 z m 40.888,-92.297 c -8.076,-4.037 -15.443,-4.912 -24.043,-5.967 V -58.428 H -27.9 v 17.719 c -27.722,3.337 -33.512,6.67 -47.2,14.916 l 18.6,22.109 5.791,-3.685 c 9.652,-6.141 18.426,-6.668 22.809,-7.195 V 8.6 c -4.034,0.875 -8.069,1.929 -12.106,2.981 -12.459,3.16 -24.564,7.194 -30.354,20.003 -1.052,2.457 -2.806,7.018 -2.806,13.689 0,6.665 2.28,22.632 18.773,32.109 11.051,6.313 22.11,6.313 26.493,6.668 v 11.403 h 16.845 V 83.521 c 4.211,-0.529 8.6,-1.05 12.809,-2.103 13.164,-3.16 20.529,-8.424 25.267,-11.408 L 8.773,48.607 c -1.929,1.4 -3.861,2.805 -5.964,4.032 -5.264,3.16 -8.073,3.685 -13.864,4.388 V 37.373 c 4.914,-0.701 14.741,-1.578 26.146,-7.719 5.614,-3.159 19.126,-11.232 19.126,-30.177 0,-7.021 -2.635,-25.095 -21.229,-34.219" /></g><g
           transform="translate(2057.5488,1845.7881)"
           id="g458"><path
             id="path460"
             style="fill:#e6ebe9;fill-opacity:1;fill-rule:nonzero;stroke:none"
             d="m 0,0 c 0,-39.765 -32.235,-72 -72,-72 h -574.549 c -39.764,0 -72,32.235 -72,72 v 204.035 c 0,39.765 32.236,72 72,72 H -72 c 39.765,0 72,-32.235 72,-72 z" /></g><g
           transform="translate(1658.3027,1898.5576)"
           id="g462"><path
             id="path464"
             style="fill:#40adbf;fill-opacity:1;fill-rule:nonzero;stroke:none"
             d="m 0,0 -0.874,-1.723 c 0,0 -0.941,0.655 -1.918,0.655 -0.735,0 -1.125,-0.333 -1.125,-0.85 0,-0.528 0.896,-0.907 1.977,-1.367 1.054,-0.447 2.215,-1.343 2.215,-2.583 0,-2.264 -1.723,-3.056 -3.571,-3.056 -2.217,0 -3.561,1.252 -3.561,1.252 l 1.08,1.815 c 0,0 1.263,-1.069 2.319,-1.069 0.472,0 1.367,0.046 1.367,0.932 0,0.688 -1.011,0.999 -2.136,1.561 -1.137,0.563 -1.803,1.449 -1.803,2.436 0,1.768 1.562,2.893 3.089,2.893 C -1.219,0.896 0,0 0,0" /></g><g
           transform="translate(1671.5713,1895.4238)"
           id="g466"><path
             id="path468"
             style="fill:#40adbf;fill-opacity:1;fill-rule:nonzero;stroke:none"
             d="M 0,0 H -0.058 L -1.999,-5.561 H -3.286 L -5.227,0 h -0.057 l -0.448,-5.617 h -2.159 l 0.851,9.474 h 2.296 l 2.102,-5.466 2.102,5.466 H 1.757 L 2.606,-5.617 H 0.447 Z" /></g><g
           transform="translate(1683.4717,1896.3535)"
           id="g470"><path
             id="path472"
             style="fill:#40adbf;fill-opacity:1;fill-rule:nonzero;stroke:none"
             d="m 0,0 h -0.021 l -1.058,-2.757 h 2.137 z m 4.813,-6.547 h -2.32 l -0.7,1.896 h -3.607 l -0.7,-1.896 h -2.32 l 3.824,9.475 h 1.998 z" /></g><g
           transform="translate(1695.6621,1895.0781)"
           id="g474"><path
             id="path476"
             style="fill:#40adbf;fill-opacity:1;fill-rule:nonzero;stroke:none"
             d="M 0,0 C 0.814,0 1.792,0.057 1.792,1.24 1.792,2.423 0.814,2.48 0,2.48 H -0.253 V 0 Z m 0.975,4.203 c 1.758,0 3.09,-0.953 3.09,-2.813 0,-1.424 -0.78,-2.376 -1.941,-2.745 L 5.387,-5.271 H 2.642 l -2.895,3.744 v -3.744 h -2.159 v 9.474 z" /></g><g
           transform="translate(1705.0142,1899.2813)"
           id="g478"><path
             id="path480"
             style="fill:#40adbf;fill-opacity:1;fill-rule:nonzero;stroke:none"
             d="m 0,0 h 6.661 v -1.896 h -2.25 v -7.579 h -2.16 v 7.579 H 0 Z" /></g><path
           id="path482"
           style="fill:#40adbf;fill-opacity:1;fill-rule:nonzero;stroke:none"
           d="m 1719.213,1889.807 h -2.161 v 9.475 h 2.161 z" /><g
           transform="translate(1730.8374,1889.8066)"
           id="g484"><path
             id="path486"
             style="fill:#40adbf;fill-opacity:1;fill-rule:nonzero;stroke:none"
             d="M 0,0 -3.491,4.02 V 0 h -2.16 v 9.475 h 2.16 v -3.87 l 3.249,3.87 H 2.377 L -1.436,4.984 2.975,0 Z" /></g><g
           transform="translate(1745.0244,1898.5576)"
           id="g488"><path
             id="path490"
             style="fill:#40adbf;fill-opacity:1;fill-rule:nonzero;stroke:none"
             d="m 0,0 -0.873,-1.723 c 0,0 -0.94,0.655 -1.917,0.655 -0.736,0 -1.126,-0.333 -1.126,-0.85 0,-0.528 0.896,-0.907 1.975,-1.367 1.057,-0.447 2.218,-1.343 2.218,-2.583 0,-2.264 -1.724,-3.056 -3.573,-3.056 -2.216,0 -3.561,1.252 -3.561,1.252 l 1.08,1.815 c 0,0 1.263,-1.069 2.32,-1.069 0.471,0 1.368,0.046 1.368,0.932 0,0.688 -1.012,0.999 -2.137,1.561 -1.136,0.563 -1.803,1.449 -1.803,2.436 0,1.768 1.561,2.893 3.09,2.893 C -1.217,0.896 0,0 0,0" /></g><g
           transform="translate(1661.9858,1932.1328)"
           id="g492"><path
             id="path494"
             style="fill:#40adbf;fill-opacity:1;fill-rule:nonzero;stroke:none"
             d="M 0,0 H 30.718 41.541 61.723 V 10.822 H 41.572 V 21.313 H 72.569 V -11.03 L 0,-11.03 Z M 0,32.138 V 63.021 H 72.563 V 53.467 H 10.839 V 42.644 H 30.718 V 32.138 Z M 83.4,-21.854 V 32.138 H 41.572 v 10.506 h 31.686 10.131 v 10.823 9.554 10.824 H 73.258 -10.823 V 21.313 H 30.718 V 10.798 H 0 l -10.513,0.024 h -0.31 V -11.03 -21.854 H 0 Z" /></g><g
           transform="translate(1427.5527,2042.5498)"
           id="g496"><path
             id="path498"
             style="fill:#40adbf;fill-opacity:1;fill-rule:nonzero;stroke:none"
             d="m 0,0 c -6.066,0 -11.001,-4.936 -11.001,-11.002 0,-6.066 4.935,-11.002 11.001,-11.002 6.066,0 11.001,4.936 11.001,11.002 C 11.001,-4.936 6.066,0 0,0 m 0,-33.384 c -12.342,0 -22.382,10.04 -22.382,22.382 0,12.342 10.04,22.382 22.382,22.382 12.342,0 22.382,-10.04 22.382,-22.382 0,-12.342 -10.04,-22.382 -22.382,-22.382" /></g><g
           transform="translate(1748.0376,2071.1914)"
           id="g500"><path
             id="path502"
             style="fill:#40adbf;fill-opacity:1;fill-rule:nonzero;stroke:none"
             d="m 0,0 c -6.066,0 -11.001,-4.936 -11.001,-11.002 0,-6.066 4.935,-11.002 11.001,-11.002 6.066,0 11.001,4.936 11.001,11.002 C 11.001,-4.936 6.066,0 0,0 m 0,-33.384 c -12.342,0 -22.382,10.04 -22.382,22.382 0,12.342 10.04,22.382 22.382,22.382 12.342,0 22.381,-10.04 22.381,-22.382 0,-12.342 -10.039,-22.382 -22.381,-22.382" /></g><g
           transform="translate(1480.1812,1973.2256)"
           id="g504"><path
             id="path506"
             style="fill:#40adbf;fill-opacity:1;fill-rule:nonzero;stroke:none"
             d="m 0,0 c -6.066,0 -11.001,-4.935 -11.001,-11.001 0,-6.065 4.935,-11.001 11.001,-11.001 6.066,0 11.001,4.936 11.001,11.001 C 11.001,-4.935 6.066,0 0,0 m 0,-33.383 c -12.342,0 -22.382,10.041 -22.382,22.382 0,12.342 10.04,22.382 22.382,22.382 12.341,0 22.382,-10.04 22.382,-22.382 0,-12.341 -10.041,-22.382 -22.382,-22.382" /></g><g
           transform="translate(1587.3003,1846.4219)"
           id="g508"><path
             id="path510"
             style="fill:#40adbf;fill-opacity:1;fill-rule:nonzero;stroke:none"
             d="m 0,0 c -6.066,0 -11.001,-4.936 -11.001,-11.001 0,-6.066 4.935,-11.002 11.001,-11.002 6.066,0 11.001,4.936 11.001,11.002 C 11.001,-4.936 6.066,0 0,0 m 0,-33.383 c -12.342,0 -22.382,10.04 -22.382,22.382 0,12.341 10.04,22.382 22.382,22.382 12.342,0 22.382,-10.041 22.382,-22.382 0,-12.342 -10.04,-22.382 -22.382,-22.382" /></g><g
           transform="translate(1886.9087,1949.1064)"
           id="g512"><path
             id="path514"
             style="fill:#40adbf;fill-opacity:1;fill-rule:nonzero;stroke:none"
             d="m 0,0 c -6.066,0 -11.001,-4.936 -11.001,-11.001 0,-6.066 4.935,-11.002 11.001,-11.002 6.066,0 11.001,4.936 11.001,11.002 C 11.001,-4.936 6.066,0 0,0 m 0,-33.383 c -12.342,0 -22.382,10.04 -22.382,22.382 0,12.341 10.04,22.382 22.382,22.382 12.342,0 22.382,-10.041 22.382,-22.382 0,-12.342 -10.04,-22.382 -22.382,-22.382" /></g><g
           transform="translate(1880.9556,1833.7197)"
           id="g516"><path
             id="path518"
             style="fill:#40adbf;fill-opacity:1;fill-rule:nonzero;stroke:none"
             d="m 0,0 c 0,6.066 -4.935,11.002 -11.001,11.002 -6.066,0 -11.002,-4.936 -11.002,-11.002 0,-6.066 4.936,-11.001 11.002,-11.001 C -4.935,-11.001 0,-6.066 0,0 m 11.38,0 c 0,-12.342 -10.04,-22.381 -22.381,-22.381 -12.342,0 -22.382,10.039 -22.382,22.381 0,12.342 10.04,22.383 22.382,22.383 C 1.34,22.383 11.38,12.342 11.38,0" /></g><g
           transform="translate(1577.4795,2025.8574)"
           id="g520"><path
             id="path522"
             style="fill:#40adbf;fill-opacity:1;fill-rule:nonzero;stroke:none"
             d="M 0,0 H -133.235 V 11.381 H -4.714 l 22.951,22.951 h 134.64 V 22.951 H 22.951 Z" /></g><g
           transform="translate(1369.8022,1936.3701)"
           id="g524"><path
             id="path526"
             style="fill:#40adbf;fill-opacity:1;fill-rule:nonzero;stroke:none"
             d="M 0,0 H -28.791 V 11.381 H -4.714 L 15.45,31.545 H 93.687 V 20.164 H 20.164 Z" /></g><g
           transform="translate(1983.8687,2028.6445)"
           id="g528"><path
             id="path530"
             style="fill:#40adbf;fill-opacity:1;fill-rule:nonzero;stroke:none"
             d="M 0,0 H 73.68 V 11.381 H 4.714 L -15.45,31.545 H -220.563 V 20.164 h 200.399 z" /></g><g
           transform="translate(2057.5488,1870.8828)"
           id="g532"><path
             id="path534"
             style="fill:#40adbf;fill-opacity:1;fill-rule:nonzero;stroke:none"
             d="m 0,0 h -31.38 l -30.608,-31.473 h -108.915 v -11.38 h 113.722 l 30.608,31.472 H 0 Z" /></g><g
           transform="translate(1565.6309,1828.0303)"
           id="g536"><path
             id="path538"
             style="fill:#40adbf;fill-opacity:1;fill-rule:nonzero;stroke:none"
             d="m 0,0 h -31.38 l -30.608,31.473 h -162.631 v 11.38 H -57.181 L -26.573,11.381 H 0 Z" /></g><path
           id="path540"
           style="fill:#40adbf;fill-opacity:1;fill-rule:nonzero;stroke:none"
           d="m 2057.549,1934.918 h -159.366 v 11.381 h 159.366 z" /><path
           id="path542"
           style="fill:#40adbf;fill-opacity:1;fill-rule:nonzero;stroke:none"
           d="m 1410.861,2025.857 h -71.635 v 11.381 h 71.635 z" /><path
           id="path544"
           style="fill:#40adbf;fill-opacity:1;fill-rule:nonzero;stroke:none"
           d="m 1853.742,1829.73 h -250.657 v 11.381 h 250.657 z" /><g
           transform="translate(1429.5962,3163.3486)"
           id="g546"><path
             id="path548"
             style="fill:#e6ebe9;fill-opacity:1;fill-rule:nonzero;stroke:none"
             d="m 0,0 469.13,-0.001 v -80 L -80.13,-80 -80,31.999 v 1592.884 l -32,0.227 h -437.129 v 80 H -112 0 V 1.816 Z" /></g><path
           id="path550"
           style="fill:#e6ebe9;fill-opacity:1;fill-rule:nonzero;stroke:none"
           d="M 7084.216,1935.177 H 4892.599 v 137.479 h 2191.617 z" /><g
           transform="translate(2059.7202,3193.75)"
           id="g552"><path
             id="path554"
             style="fill:#2c2b2a;fill-opacity:1;fill-rule:nonzero;stroke:none"
             d="M 0,0 8.601,8.602 H 77.407 L 86.008,0 43.004,-34.402 Z" /></g><g
           transform="translate(2233.0464,3145.0605)"
           id="g556"><path
             id="path558"
             style="fill:#5eb2c5;fill-opacity:1;fill-rule:nonzero;stroke:none"
             d="m 0,0 c -4.906,6.295 -11.583,10.406 -18.773,12.203 l -64.119,16.031 c -3.595,0.894 -6.921,2.951 -9.381,6.097 -0.992,1.268 -1.631,2.676 -2.209,4.086 L -113.12,22.888 h -17.202 -17.201 l -18.638,15.529 c -0.588,-1.41 -1.218,-2.818 -2.201,-4.086 -2.461,-3.146 -5.804,-5.203 -9.399,-6.097 L -241.88,12.203 C -249.07,10.406 -255.731,6.295 -260.653,0 c -4.913,-6.297 -7.282,-13.762 -7.282,-21.175 v -24.744 c 0,-4.397 1.68,-8.803 5.04,-12.162 3.352,-3.356 7.752,-5.039 12.162,-5.039 H -9.911 c 4.401,0 8.802,1.683 12.162,5.039 3.359,3.359 5.039,7.765 5.039,12.162 v 24.744 C 7.29,-13.762 4.914,-6.297 0,0" /></g><g
           transform="translate(2042.519,3167.9482)"
           id="g560"><path
             id="path562"
             style="fill:#bbbbb9;fill-opacity:1;fill-rule:nonzero;stroke:none"
             d="M 0,0 17.201,25.802 60.205,0 43.004,-25.803 Z" /></g><g
           transform="translate(2162.9297,3167.9482)"
           id="g564"><path
             id="path566"
             style="fill:#bbbbb9;fill-opacity:1;fill-rule:nonzero;stroke:none"
             d="M 0,0 -17.202,25.802 -60.206,0 -43.003,-25.803 Z" /></g><g
           transform="translate(2152.0947,3272.9961)"
           id="g568"><path
             id="path570"
             style="fill:#e5815b;fill-opacity:1;fill-rule:nonzero;stroke:none"
             d="m 0,0 c -2.486,30.972 -15.941,52.991 -51.638,52.991 -35.705,0 -49.614,-22.93 -52.1,-53.893 -3.873,-1.675 -6.46,-8.634 -5.703,-18.605 0.806,-10.768 4.963,-19.342 9.474,-19.977 8.054,-25.458 26.659,-46.048 48.329,-46.048 21.669,0 40.266,20.59 48.32,46.048 4.527,0.635 8.668,9.209 9.475,19.977 C 6.913,-9.536 3.864,-1.676 0,0" /></g><g
           transform="translate(2061.9966,3264.2529)"
           id="g572"><path
             id="path574"
             style="fill:#2c2b2a;fill-opacity:1;fill-rule:nonzero;stroke:none"
             d="M 0,0 H 3.032 C 3.032,0 0.84,17.881 8.525,21.754 20.889,27.99 25.87,9.995 51.143,12.645 76.424,15.287 74.955,0 74.955,0 h 2.494 c 0,0 1.008,6.136 3.536,7.647 9.181,5.507 13.204,-3.922 13.204,-3.922 0,0 0.21,3.441 0.21,5.951 0,41.232 -15.824,55.485 -35.42,62.339 -29.263,10.243 -40.316,-4.07 -40.316,-4.07 0,0 -12.196,-0.437 -23.367,-10.63 -10.591,-9.658 -14.505,-22.336 -12.741,-47.613 0.277,-3.991 -0.118,-5.444 -0.118,-6.263 3.587,5.808 9.155,6.942 13.33,4.397 C -1.411,6.113 0,0 0,0" /></g><g
           transform="translate(2257.5386,3193.75)"
           id="g576"><path
             id="path578"
             style="fill:#2c2b2a;fill-opacity:1;fill-rule:nonzero;stroke:none"
             d="M 0,0 8.601,8.602 H 77.407 L 86.007,0 43.004,-34.402 Z" /></g><g
           transform="translate(2430.8643,3145.0605)"
           id="g580"><path
             id="path582"
             style="fill:#5eb2c5;fill-opacity:1;fill-rule:nonzero;stroke:none"
             d="m 0,0 c -4.905,6.295 -11.583,10.406 -18.772,12.203 l -64.12,16.031 c -3.594,0.894 -6.921,2.951 -9.381,6.097 -0.991,1.268 -1.63,2.676 -2.209,4.086 L -113.12,22.888 h -17.202 -17.201 l -18.638,15.529 c -0.588,-1.41 -1.218,-2.818 -2.201,-4.086 -2.461,-3.146 -5.804,-5.203 -9.399,-6.097 L -241.88,12.203 C -249.07,10.406 -255.73,6.295 -260.652,0 c -4.914,-6.297 -7.283,-13.762 -7.283,-21.175 v -24.744 c 0,-4.397 1.68,-8.803 5.04,-12.162 3.352,-3.356 7.752,-5.039 12.162,-5.039 H -9.911 c 4.401,0 8.802,1.683 12.162,5.039 3.36,3.359 5.039,7.765 5.039,12.162 v 24.744 C 7.29,-13.762 4.914,-6.297 0,0" /></g><g
           transform="translate(2240.3369,3167.9482)"
           id="g584"><path
             id="path586"
             style="fill:#bbbbb9;fill-opacity:1;fill-rule:nonzero;stroke:none"
             d="M 0,0 17.202,25.802 60.206,0 43.004,-25.803 Z" /></g><g
           transform="translate(2360.748,3167.9482)"
           id="g588"><path
             id="path590"
             style="fill:#bbbbb9;fill-opacity:1;fill-rule:nonzero;stroke:none"
             d="M 0,0 -17.202,25.802 -60.206,0 -43.004,-25.803 Z" /></g><g
           transform="translate(2349.9126,3272.9961)"
           id="g592"><path
             id="path594"
             style="fill:#e5815b;fill-opacity:1;fill-rule:nonzero;stroke:none"
             d="m 0,0 c -2.486,30.972 -15.941,52.991 -51.638,52.991 -35.705,0 -49.614,-22.93 -52.1,-53.893 -3.872,-1.675 -6.459,-8.634 -5.703,-18.605 0.806,-10.768 4.964,-19.342 9.474,-19.977 8.054,-25.458 26.659,-46.048 48.329,-46.048 21.67,0 40.266,20.59 48.32,46.048 4.528,0.635 8.669,9.209 9.475,19.977 C 6.913,-9.536 3.864,-1.676 0,0" /></g><g
           transform="translate(2259.8149,3264.2529)"
           id="g596"><path
             id="path598"
             style="fill:#2c2b2a;fill-opacity:1;fill-rule:nonzero;stroke:none"
             d="m 0,0 h 3.032 c 0,0 -2.193,17.881 5.493,21.754 C 20.889,27.99 25.869,9.995 51.143,12.645 76.424,15.287 74.954,0 74.954,0 h 2.495 c 0,0 1.008,6.136 3.536,7.647 9.18,5.507 13.203,-3.922 13.203,-3.922 0,0 0.21,3.441 0.21,5.951 0,41.232 -15.824,55.485 -35.419,62.339 -29.263,10.243 -40.316,-4.07 -40.316,-4.07 0,0 -12.196,-0.437 -23.367,-10.63 -10.591,-9.658 -14.505,-22.336 -12.741,-47.613 0.277,-3.991 -0.118,-5.444 -0.118,-6.263 3.587,5.808 9.155,6.942 13.33,4.397 C -1.412,6.113 0,0 0,0" /></g><g
           transform="translate(2455.3564,3193.75)"
           id="g600"><path
             id="path602"
             style="fill:#2c2b2a;fill-opacity:1;fill-rule:nonzero;stroke:none"
             d="M 0,0 8.601,8.602 H 77.407 L 86.008,0 43.004,-34.402 Z" /></g><g
           transform="translate(2628.6826,3145.0605)"
           id="g604"><path
             id="path606"
             style="fill:#5eb2c5;fill-opacity:1;fill-rule:nonzero;stroke:none"
             d="m 0,0 c -4.905,6.295 -11.583,10.406 -18.772,12.203 l -64.12,16.031 c -3.595,0.894 -6.921,2.951 -9.381,6.097 -0.992,1.268 -1.63,2.676 -2.209,4.086 L -113.12,22.888 h -17.202 -17.201 l -18.638,15.529 c -0.588,-1.41 -1.218,-2.818 -2.201,-4.086 -2.461,-3.146 -5.804,-5.203 -9.399,-6.097 L -241.88,12.203 C -249.07,10.406 -255.73,6.295 -260.652,0 c -4.914,-6.297 -7.283,-13.762 -7.283,-21.175 v -24.744 c 0,-4.397 1.68,-8.803 5.04,-12.162 3.352,-3.356 7.752,-5.039 12.162,-5.039 H -9.911 c 4.4,0 8.802,1.683 12.162,5.039 3.359,3.359 5.039,7.765 5.039,12.162 v 24.744 C 7.29,-13.762 4.913,-6.297 0,0" /></g><g
           transform="translate(2438.1553,3167.9482)"
           id="g608"><path
             id="path610"
             style="fill:#bbbbb9;fill-opacity:1;fill-rule:nonzero;stroke:none"
             d="M 0,0 17.201,25.802 60.205,0 43.004,-25.803 Z" /></g><g
           transform="translate(2558.5664,3167.9482)"
           id="g612"><path
             id="path614"
             style="fill:#bbbbb9;fill-opacity:1;fill-rule:nonzero;stroke:none"
             d="M 0,0 -17.202,25.802 -60.206,0 -43.004,-25.803 Z" /></g><g
           transform="translate(2547.731,3272.9961)"
           id="g616"><path
             id="path618"
             style="fill:#e5815b;fill-opacity:1;fill-rule:nonzero;stroke:none"
             d="m 0,0 c -2.486,30.972 -15.941,52.991 -51.638,52.991 -35.705,0 -49.614,-22.93 -52.1,-53.893 -3.873,-1.675 -6.46,-8.634 -5.703,-18.605 0.806,-10.768 4.963,-19.342 9.474,-19.977 8.054,-25.458 26.659,-46.048 48.329,-46.048 21.669,0 40.265,20.59 48.32,46.048 4.527,0.635 8.668,9.209 9.475,19.977 C 6.913,-9.536 3.864,-1.676 0,0" /></g><g
           transform="translate(2457.6328,3264.2529)"
           id="g620"><path
             id="path622"
             style="fill:#2c2b2a;fill-opacity:1;fill-rule:nonzero;stroke:none"
             d="M 0,0 H 3.032 C 3.032,0 0.84,17.881 8.525,21.754 20.889,27.99 25.869,9.995 51.143,12.645 76.424,15.287 74.955,0 74.955,0 h 2.494 c 0,0 1.008,6.136 3.536,7.647 9.181,5.507 13.204,-3.922 13.204,-3.922 0,0 0.209,3.441 0.209,5.951 0,41.232 -15.823,55.485 -35.419,62.339 -29.263,10.243 -40.316,-4.07 -40.316,-4.07 0,0 -12.196,-0.437 -23.367,-10.63 -10.591,-9.658 -14.505,-22.336 -12.741,-47.613 0.277,-3.991 -0.118,-5.444 -0.118,-6.263 3.587,5.808 9.155,6.942 13.33,4.397 C -1.411,6.113 0,0 0,0" /></g><g
           transform="translate(629.9966,4903.9619)"
           id="g624"><path
             id="path626"
             style="fill:#2c2b2a;fill-opacity:1;fill-rule:nonzero;stroke:none"
             d="M 0,0 8.601,8.602 H 77.407 L 86.008,0 43.004,-34.402 Z" /></g><g
           transform="translate(803.3228,4855.2725)"
           id="g628"><path
             id="path630"
             style="fill:#5eb2c5;fill-opacity:1;fill-rule:nonzero;stroke:none"
             d="m 0,0 c -4.905,6.295 -11.583,10.406 -18.772,12.203 l -64.12,16.031 c -3.595,0.894 -6.921,2.951 -9.381,6.097 -0.992,1.268 -1.63,2.676 -2.209,4.086 L -113.12,22.888 h -17.202 -17.201 l -18.638,15.529 c -0.588,-1.41 -1.218,-2.818 -2.201,-4.086 -2.461,-3.146 -5.805,-5.203 -9.399,-6.097 L -241.88,12.203 C -249.07,10.406 -255.73,6.295 -260.652,0 c -4.914,-6.297 -7.283,-13.762 -7.283,-21.175 v -24.744 c 0,-4.397 1.68,-8.803 5.04,-12.162 3.352,-3.356 7.752,-5.039 12.162,-5.039 H -9.911 c 4.4,0 8.802,1.683 12.162,5.039 3.359,3.359 5.039,7.765 5.039,12.162 v 24.744 C 7.29,-13.762 4.913,-6.297 0,0" /></g><g
           transform="translate(612.7954,4878.1602)"
           id="g632"><path
             id="path634"
             style="fill:#bbbbb9;fill-opacity:1;fill-rule:nonzero;stroke:none"
             d="M 0,0 17.201,25.802 60.205,0 43.004,-25.803 Z" /></g><g
           transform="translate(733.2065,4878.1602)"
           id="g636"><path
             id="path638"
             style="fill:#bbbbb9;fill-opacity:1;fill-rule:nonzero;stroke:none"
             d="M 0,0 -17.202,25.802 -60.206,0 -43.004,-25.803 Z" /></g><g
           transform="translate(722.3711,4983.208)"
           id="g640"><path
             id="path642"
             style="fill:#e5815b;fill-opacity:1;fill-rule:nonzero;stroke:none"
             d="m 0,0 c -2.486,30.972 -15.941,52.991 -51.638,52.991 -35.705,0 -49.614,-22.93 -52.1,-53.893 -3.873,-1.675 -6.46,-8.634 -5.703,-18.605 0.806,-10.768 4.963,-19.342 9.474,-19.977 8.054,-25.458 26.659,-46.048 48.329,-46.048 21.669,0 40.265,20.59 48.32,46.048 4.527,0.635 8.668,9.209 9.475,19.977 C 6.913,-9.536 3.864,-1.676 0,0" /></g><g
           transform="translate(632.2729,4974.4648)"
           id="g644"><path
             id="path646"
             style="fill:#2c2b2a;fill-opacity:1;fill-rule:nonzero;stroke:none"
             d="M 0,0 H 3.032 C 3.032,0 0.84,17.881 8.525,21.754 20.889,27.99 25.869,9.995 51.143,12.645 76.424,15.287 74.955,0 74.955,0 h 2.494 c 0,0 1.008,6.136 3.536,7.647 9.181,5.507 13.204,-3.922 13.204,-3.922 0,0 0.209,3.441 0.209,5.951 0,41.232 -15.823,55.485 -35.419,62.339 -29.263,10.243 -40.316,-4.07 -40.316,-4.07 0,0 -12.196,-0.437 -23.367,-10.63 -10.591,-9.658 -14.505,-22.336 -12.741,-47.613 0.277,-3.991 -0.118,-5.444 -0.118,-6.263 3.587,5.808 9.155,6.942 13.33,4.397 C -1.411,6.113 0,0 0,0" /></g><g
           transform="translate(1823.5327,3680.5908)"
           id="g648"><path
             id="path650"
             style="fill:#40adbf;fill-opacity:1;fill-rule:evenodd;stroke:none"
             d="m 0,0 17.472,36.418 h -718.549 l -17.551,-36.584 c 2.476,0.092 2.288,0.166 3.115,0.166 10.719,0 15.556,-8.688 10.409,-19.416 -5.147,-10.729 -18.478,-19.438 -29.199,-19.438 -0.826,0 -0.418,0.075 -2.796,0.188 l -11.812,-24.621 c 2.481,0.101 2.288,0.166 3.115,0.166 10.719,0 15.552,-8.696 10.414,-19.406 -5.148,-10.729 -18.472,-19.426 -29.193,-19.426 -0.827,0 -0.425,0.062 -2.81,0.16 l -11.809,-24.615 c 2.486,0.111 2.298,0.185 3.125,0.185 10.718,0 15.546,-8.707 10.405,-19.423 -5.144,-10.721 -18.473,-19.427 -29.193,-19.427 -0.827,0 -0.417,0.077 -2.806,0.169 l -11.809,-24.616 c 2.481,0.102 2.288,0.166 3.115,0.166 10.719,0 15.556,-8.687 10.409,-19.416 -5.145,-10.724 -18.471,-19.424 -29.192,-19.424 -0.827,0 -0.422,0.067 -2.801,0.178 l -11.809,-24.615 c 2.476,0.092 2.289,0.166 3.115,0.166 10.719,0 15.552,-8.696 10.411,-19.412 -5.149,-10.732 -18.474,-19.429 -29.194,-19.429 -0.827,0 -0.422,0.068 -2.806,0.169 l -17.548,-36.578 h 718.549 l 17.467,36.409 c -9.709,0 -15.237,8.697 -10.088,19.429 5.14,10.716 19.013,19.412 28.722,19.412 l 11.644,24.271 c -9.709,0 -15.235,8.7 -10.09,19.424 5.147,10.729 19.015,19.416 28.724,19.416 l 11.649,24.281 c -9.709,0 -15.233,8.706 -10.089,19.427 5.141,10.716 19.018,19.423 28.728,19.423 l 11.643,24.27 c -9.709,0 -15.237,8.697 -10.089,19.426 5.138,10.71 19.01,19.406 28.719,19.406 l 11.643,24.267 c -9.71,0 -15.232,8.709 -10.085,19.438 C -23.577,-8.688 -9.709,0 0,0" /></g><g
           transform="translate(1205.8984,3660.707)"
           id="g652"><path
             id="path654"
             style="fill:#f2bf2a;fill-opacity:1;fill-rule:evenodd;stroke:none"
             d="m 0,0 0.125,-8.888 9.125,-1.41 -10.421,-6.924 -3.006,-9.764 -6.556,4.614 -10.986,-4.614 6.365,9.764 -3.778,6.924 10.478,1.41 z" /></g><g
           transform="translate(1254.4565,3660.707)"
           id="g656"><path
             id="path658"
             style="fill:#f2bf2a;fill-opacity:1;fill-rule:evenodd;stroke:none"
             d="m 0,0 0.125,-8.888 9.126,-1.41 -10.422,-6.924 -3.006,-9.764 -6.556,4.614 -10.994,-4.614 6.367,9.764 -3.782,6.924 10.488,1.41 z" /></g><g
           transform="translate(1305.439,3660.707)"
           id="g660"><path
             id="path662"
             style="fill:#f2bf2a;fill-opacity:1;fill-rule:evenodd;stroke:none"
             d="m 0,0 0.105,-8.888 9.135,-1.41 -10.413,-6.924 -3.015,-9.764 -6.545,4.614 -10.997,-4.614 6.356,9.764 -3.769,6.924 10.478,1.41 z" /></g><g
           transform="translate(1355.1943,3660.707)"
           id="g664"><path
             id="path666"
             style="fill:#f2bf2a;fill-opacity:1;fill-rule:evenodd;stroke:none"
             d="m 0,0 0.126,-8.888 9.122,-1.41 -10.422,-6.924 -3.004,-9.764 -6.555,4.614 -10.986,-4.614 6.356,9.764 -3.769,6.924 10.478,1.41 z" /></g><g
           transform="translate(1404.9575,3660.707)"
           id="g668"><path
             id="path670"
             style="fill:#f2bf2a;fill-opacity:1;fill-rule:evenodd;stroke:none"
             d="m 0,0 0.126,-8.888 9.125,-1.41 -10.422,-6.924 -3.004,-9.764 -6.558,4.614 -10.985,-4.614 6.355,9.764 -3.769,6.924 10.478,1.41 z" /></g><g
           transform="translate(1454.7148,3660.707)"
           id="g672"><path
             id="path674"
             style="fill:#f2bf2a;fill-opacity:1;fill-rule:evenodd;stroke:none"
             d="m 0,0 0.136,-8.888 9.126,-1.41 -10.427,-6.924 -3.004,-9.764 -6.564,4.614 -10.985,-4.614 6.363,9.764 -3.776,6.924 10.486,1.41 z" /></g><g
           transform="translate(1504.4858,3660.707)"
           id="g676"><path
             id="path678"
             style="fill:#f2bf2a;fill-opacity:1;fill-rule:evenodd;stroke:none"
             d="m 0,0 0.12,-8.888 9.131,-1.41 -10.408,-6.924 -3.017,-9.764 -6.559,4.614 -10.982,-4.614 6.357,9.764 -3.781,6.924 10.488,1.41 z" /></g><g
           transform="translate(1554.252,3660.707)"
           id="g680"><path
             id="path682"
             style="fill:#f2bf2a;fill-opacity:1;fill-rule:evenodd;stroke:none"
             d="m 0,0 0.11,-8.888 9.132,-1.41 -10.402,-6.924 -3.017,-9.764 -6.556,4.614 -10.982,-4.614 6.354,9.764 -3.78,6.924 10.481,1.41 z" /></g><g
           transform="translate(1604.0186,3660.707)"
           id="g684"><path
             id="path686"
             style="fill:#f2bf2a;fill-opacity:1;fill-rule:evenodd;stroke:none"
             d="m 0,0 0.116,-8.888 9.123,-1.41 -10.421,-6.924 -2.992,-9.764 -6.559,4.614 -10.985,-4.614 6.354,9.764 -3.759,6.924 10.469,1.41 z" /></g><g
           transform="translate(1653.7847,3660.707)"
           id="g688"><path
             id="path690"
             style="fill:#f2bf2a;fill-opacity:1;fill-rule:evenodd;stroke:none"
             d="m 0,0 0.113,-8.888 9.129,-1.41 -10.424,-6.924 -2.995,-9.764 -6.556,4.614 -10.988,-4.614 6.354,9.764 -3.774,6.924 10.484,1.41 z" /></g><g
           transform="translate(1703.5479,3660.707)"
           id="g692"><path
             id="path694"
             style="fill:#f2bf2a;fill-opacity:1;fill-rule:evenodd;stroke:none"
             d="m 0,0 0.12,-8.888 9.131,-1.41 -10.42,-6.924 -3.008,-9.764 -6.556,4.614 -10.994,-4.614 6.366,9.764 -3.78,6.924 10.487,1.41 z" /></g><g
           transform="translate(1100.8765,3441.8008)"
           id="g696"><path
             id="path698"
             style="fill:#f2bf2a;fill-opacity:1;fill-rule:evenodd;stroke:none"
             d="m 0,0 0.128,-8.882 9.114,-1.431 -10.42,-6.923 -3.006,-9.765 -6.556,4.614 -10.986,-4.614 6.366,9.765 -3.78,6.923 10.489,1.431 z" /></g><g
           transform="translate(1149.4346,3441.8008)"
           id="g700"><path
             id="path702"
             style="fill:#f2bf2a;fill-opacity:1;fill-rule:evenodd;stroke:none"
             d="m 0,0 0.128,-8.882 9.116,-1.431 -10.422,-6.923 -3.006,-9.765 -6.556,4.614 -10.994,-4.614 6.367,9.765 -3.782,6.923 10.498,1.431 z" /></g><g
           transform="translate(1200.417,3441.8008)"
           id="g704"><path
             id="path706"
             style="fill:#f2bf2a;fill-opacity:1;fill-rule:evenodd;stroke:none"
             d="m 0,0 0.108,-8.882 9.125,-1.431 -10.413,-6.923 -3.014,-9.765 -6.546,4.614 -10.997,-4.614 6.357,9.765 -3.77,6.923 10.488,1.431 z" /></g><g
           transform="translate(1250.1724,3441.8008)"
           id="g708"><path
             id="path710"
             style="fill:#f2bf2a;fill-opacity:1;fill-rule:evenodd;stroke:none"
             d="m 0,0 0.129,-8.882 9.112,-1.431 -10.422,-6.923 -3.004,-9.765 -6.555,4.614 -10.986,-4.614 6.356,9.765 -3.77,6.923 10.489,1.431 z" /></g><g
           transform="translate(1299.9355,3441.8008)"
           id="g712"><path
             id="path714"
             style="fill:#f2bf2a;fill-opacity:1;fill-rule:evenodd;stroke:none"
             d="m 0,0 0.129,-8.882 9.115,-1.431 -10.422,-6.923 -3.004,-9.765 -6.558,4.614 -10.985,-4.614 6.355,9.765 -3.769,6.923 10.488,1.431 z" /></g><g
           transform="translate(1349.6929,3441.8008)"
           id="g716"><path
             id="path718"
             style="fill:#f2bf2a;fill-opacity:1;fill-rule:evenodd;stroke:none"
             d="m 0,0 0.139,-8.882 9.115,-1.431 -10.426,-6.923 -3.004,-9.765 -6.564,4.614 -10.985,-4.614 6.363,9.765 -3.776,6.923 10.496,1.431 z" /></g><g
           transform="translate(1399.4639,3441.8008)"
           id="g720"><path
             id="path722"
             style="fill:#f2bf2a;fill-opacity:1;fill-rule:evenodd;stroke:none"
             d="m 0,0 0.123,-8.882 9.121,-1.431 -10.408,-6.923 -3.017,-9.765 -6.559,4.614 -10.982,-4.614 6.357,9.765 -3.781,6.923 10.498,1.431 z" /></g><g
           transform="translate(1449.23,3441.8008)"
           id="g724"><path
             id="path726"
             style="fill:#f2bf2a;fill-opacity:1;fill-rule:evenodd;stroke:none"
             d="m 0,0 0.113,-8.882 9.122,-1.431 -10.402,-6.923 -3.017,-9.765 -6.556,4.614 -10.982,-4.614 6.354,9.765 -3.78,6.923 10.491,1.431 z" /></g><g
           transform="translate(1498.9966,3441.8008)"
           id="g728"><path
             id="path730"
             style="fill:#f2bf2a;fill-opacity:1;fill-rule:evenodd;stroke:none"
             d="m 0,0 0.119,-8.882 9.112,-1.431 -10.42,-6.923 -2.992,-9.765 -6.559,4.614 -10.985,-4.614 6.354,9.765 -3.759,6.923 10.479,1.431 z" /></g><g
           transform="translate(1548.7627,3441.8008)"
           id="g732"><path
             id="path734"
             style="fill:#f2bf2a;fill-opacity:1;fill-rule:evenodd;stroke:none"
             d="m 0,0 0.116,-8.882 9.119,-1.431 -10.423,-6.923 -2.996,-9.765 -6.556,4.614 -10.988,-4.614 6.354,9.765 -3.774,6.923 10.494,1.431 z" /></g><g
           transform="translate(1598.5259,3441.8008)"
           id="g736"><path
             id="path738"
             style="fill:#f2bf2a;fill-opacity:1;fill-rule:evenodd;stroke:none"
             d="m 0,0 0.123,-8.882 9.121,-1.431 -10.42,-6.923 -3.008,-9.765 -6.556,4.614 -10.994,-4.614 6.366,9.765 -3.78,6.923 10.497,1.431 z" /></g><g
           transform="translate(1711.4473,4342.3545)"
           id="g740"><path
             id="path742"
             style="fill:#40adbf;fill-opacity:1;fill-rule:nonzero;stroke:none"
             d="m 0,0 c -16.453,-39.765 -62.025,-72 -101.79,-72 h -574.549 c -39.765,0 -58.662,32.235 -42.21,72 l 84.42,204.035 c 16.452,39.765 62.025,72 101.79,72 H 42.21 c 39.765,0 58.662,-32.235 42.21,-72 z" /></g><g
           transform="translate(1480.5137,4444.3721)"
           id="g744"><path
             id="path746"
             style="fill:#f8f8f8;fill-opacity:1;fill-rule:nonzero;stroke:none"
             d="m 0,0 c -19.682,-47.569 -74.199,-86.132 -121.768,-86.132 -47.569,0 -70.176,38.563 -50.494,86.132 19.682,47.569 74.199,86.132 121.768,86.132 C -2.925,86.132 19.682,47.569 0,0" /></g><g
           transform="translate(1403.7612,4430.79)"
           id="g748"><path
             id="path750"
             style="fill:#40adbf;fill-opacity:1;fill-rule:nonzero;stroke:none"
             d="m 0,0 c -0.017,2.445 -2.014,3.219 -6.299,4.377 l -6.126,-14.805 c 3.41,0.775 6.433,1.546 9.513,4.635 1.542,1.545 2.096,2.574 2.469,3.476 C -0.124,-1.545 -0.064,-0.772 0,0 m -2.999,42.227 c -0.383,0 -3.12,-0.387 -5.113,-1.161 -2.486,-1.03 -5.397,-3.088 -6.409,-5.534 -0.694,-1.676 -0.324,-2.961 0.461,-3.862 1.27,-1.287 3.944,-1.673 5.841,-2.061 z m 1.98,-67.717 c -7.148,-2.961 -12.821,-3.605 -19.449,-4.377 l -5.379,-13.001 h -12.36 l 5.379,13.001 c -19.327,2.446 -22.563,4.892 -30.102,10.942 l 20.358,16.222 3.131,-2.704 c 5.217,-4.505 11.493,-4.892 14.55,-5.279 l 7.032,16.996 c -2.695,0.641 -5.335,1.415 -7.978,2.187 -8.182,2.317 -15.838,5.278 -16.198,14.676 -0.028,1.802 0.072,5.149 2.097,10.043 2.023,4.89 8.542,16.605 23.521,23.557 10.025,4.634 18.138,4.634 21.462,4.894 l 3.461,8.366 h 12.36 l -3.622,-8.755 c 2.929,-0.386 5.989,-0.77 8.758,-1.543 8.699,-2.317 12.505,-6.18 15.076,-8.37 L 21.192,35.662 c -0.99,1.027 -1.981,2.058 -3.152,2.958 -2.903,2.319 -4.804,2.704 -8.839,3.22 L 3.235,27.421 c 3.391,-0.515 10.334,-1.16 16.838,-5.664 3.161,-2.318 10.623,-8.24 4.871,-22.142 -2.131,-5.15 -9.549,-18.411 -25.963,-25.105" /></g><g
           transform="translate(1711.4478,3891.6641)"
           id="g752"><path
             id="path754"
             style="fill:#3a3c49;fill-opacity:1;fill-rule:nonzero;stroke:none"
             d="m 0,0 c -16.453,-39.765 -62.026,-72 -101.791,-72 h -574.548 c -39.765,0 -58.663,32.235 -42.21,72 l 84.42,204.035 c 16.452,39.765 62.025,72 101.79,72 H 42.209 c 39.765,0 58.663,-32.235 42.21,-72 z" /></g><g
           transform="translate(1351.6099,3967.6865)"
           id="g756"><path
             id="path758"
             style="fill:#ffffff;fill-opacity:1;fill-rule:nonzero;stroke:none"
             d="m 0,0 h 30.718 10.823 20.182 l 4.478,10.822 H 46.049 L 50.39,21.313 H 81.387 L 68.005,-11.03 H -4.564 Z M 13.297,32.138 26.075,63.021 H 98.638 L 94.686,53.467 H 32.961 L 28.483,42.644 H 48.361 L 44.015,32.138 Z m 61.06,-53.992 22.34,53.992 H 54.869 l 4.346,10.506 h 31.687 10.131 l 4.478,10.823 3.953,9.554 4.478,10.824 H 103.812 19.73 L -2.004,21.313 h 41.54 L 35.186,10.798 H 4.468 l -10.503,0.024 h -0.31 l -9.042,-21.852 -4.478,-10.824 h 10.823 z" /></g><g
           transform="translate(1162.8618,4088.4258)"
           id="g760"><path
             id="path762"
             style="fill:#f8f8f8;fill-opacity:1;fill-rule:nonzero;stroke:none"
             d="m 0,0 c -6.066,0 -13.043,-4.936 -15.554,-11.002 -2.509,-6.066 0.384,-11.002 6.45,-11.002 6.066,0 13.043,4.936 15.553,11.002 C 8.959,-4.936 6.066,0 0,0 m -13.813,-33.384 c -12.341,0 -18.228,10.04 -13.121,22.382 C -21.828,1.34 -7.633,11.38 4.708,11.38 17.05,11.38 22.936,1.34 17.83,-11.002 12.723,-23.344 -1.471,-33.384 -13.813,-33.384" /></g><g
           transform="translate(1495.1973,4117.0674)"
           id="g764"><path
             id="path766"
             style="fill:#f8f8f8;fill-opacity:1;fill-rule:nonzero;stroke:none"
             d="m 0,0 c -6.066,0 -13.043,-4.936 -15.554,-11.002 -2.509,-6.066 0.384,-11.002 6.45,-11.002 6.066,0 13.043,4.936 15.553,11.002 C 8.959,-4.936 6.066,0 0,0 m -13.813,-33.384 c -12.341,0 -18.228,10.04 -13.121,22.382 C -21.828,1.34 -7.633,11.38 4.708,11.38 17.05,11.38 22.936,1.34 17.83,-11.002 12.723,-23.344 -1.471,-33.384 -13.813,-33.384" /></g><g
           transform="translate(1186.8071,4019.1016)"
           id="g768"><path
             id="path770"
             style="fill:#f8f8f8;fill-opacity:1;fill-rule:nonzero;stroke:none"
             d="m 0,0 c -6.066,0 -13.043,-4.935 -15.553,-11.001 -2.51,-6.065 0.384,-11.001 6.45,-11.001 6.066,0 13.043,4.936 15.553,11.001 C 8.96,-4.935 6.066,0 0,0 m -13.812,-33.383 c -12.342,0 -18.228,10.041 -13.122,22.382 5.107,12.342 19.301,22.382 31.643,22.382 12.341,0 18.228,-10.04 13.121,-22.382 -5.106,-12.341 -19.301,-22.382 -31.642,-22.382" /></g><g
           transform="translate(1241.4614,3892.2979)"
           id="g772"><path
             id="path774"
             style="fill:#f8f8f8;fill-opacity:1;fill-rule:nonzero;stroke:none"
             d="m 0,0 c -6.066,0 -13.044,-4.936 -15.553,-11.001 -2.51,-6.066 0.383,-11.002 6.449,-11.002 6.066,0 13.043,4.936 15.554,11.002 C 8.959,-4.936 6.066,0 0,0 m -13.813,-33.383 c -12.341,0 -18.227,10.04 -13.121,22.382 5.106,12.341 19.301,22.382 31.642,22.382 12.342,0 18.228,-10.041 13.122,-22.382 -5.106,-12.342 -19.301,-22.382 -31.643,-22.382" /></g><g
           transform="translate(1583.5557,3994.9824)"
           id="g776"><path
             id="path778"
             style="fill:#f8f8f8;fill-opacity:1;fill-rule:nonzero;stroke:none"
             d="m 0,0 c -6.066,0 -13.044,-4.936 -15.553,-11.001 -2.51,-6.066 0.383,-11.002 6.449,-11.002 6.066,0 13.043,4.936 15.554,11.002 C 8.959,-4.936 6.066,0 0,0 m -13.813,-33.383 c -12.341,0 -18.227,10.04 -13.121,22.382 5.106,12.341 19.301,22.382 31.642,22.382 12.342,0 18.228,-10.041 13.122,-22.382 -5.106,-12.342 -19.301,-22.382 -31.643,-22.382" /></g><g
           transform="translate(1529.8608,3879.5957)"
           id="g780"><path
             id="path782"
             style="fill:#f8f8f8;fill-opacity:1;fill-rule:nonzero;stroke:none"
             d="m 0,0 c 2.51,6.066 -0.383,11.002 -6.449,11.002 -6.066,0 -13.044,-4.936 -15.554,-11.002 -2.51,-6.066 0.384,-11.001 6.45,-11.001 C -9.487,-11.001 -2.51,-6.066 0,0 M 11.38,0 C 6.274,-12.342 -7.919,-22.381 -20.261,-22.381 -32.603,-22.381 -38.49,-12.342 -33.383,0 -28.277,12.342 -14.082,22.383 -1.74,22.383 10.602,22.383 16.487,12.342 11.38,0" /></g><g
           transform="translate(1305.8823,4071.7334)"
           id="g784"><path
             id="path786"
             style="fill:#f8f8f8;fill-opacity:1;fill-rule:nonzero;stroke:none"
             d="m 0,0 h -133.235 l 4.709,11.381 H -0.005 l 32.447,22.951 h 134.64 L 162.373,22.951 H 32.447 Z" /></g><g
           transform="translate(1061.1792,3982.2461)"
           id="g788"><path
             id="path790"
             style="fill:#f8f8f8;fill-opacity:1;fill-rule:nonzero;stroke:none"
             d="m 0,0 h -28.791 l 4.709,11.381 h 24.077 l 28.506,20.164 h 78.238 L 102.03,20.164 H 28.507 Z" /></g><g
           transform="translate(1713.4243,4074.5205)"
           id="g792"><path
             id="path794"
             style="fill:#f8f8f8;fill-opacity:1;fill-rule:nonzero;stroke:none"
             d="m 0,0 h 73.68 l 4.709,11.381 H 9.423 L -2.398,31.545 h -205.113 l -4.708,-11.381 h 200.398 z" /></g><g
           transform="translate(1721.8306,3916.7588)"
           id="g796"><path
             id="path798"
             style="fill:#f8f8f8;fill-opacity:1;fill-rule:nonzero;stroke:none"
             d="m 0,0 h -31.38 l -43.63,-31.473 h -108.915 l -4.709,-11.38 h 113.722 l 43.63,31.472 h 26.573 z" /></g><g
           transform="translate(1212.1821,3873.9063)"
           id="g800"><path
             id="path802"
             style="fill:#f8f8f8;fill-opacity:1;fill-rule:nonzero;stroke:none"
             d="m 0,0 h -31.38 l -17.586,31.473 h -162.631 l 4.708,11.38 H -39.451 L -21.864,11.381 H 4.709 Z" /></g><g
           transform="translate(1748.3252,3980.7939)"
           id="g804"><path
             id="path806"
             style="fill:#f8f8f8;fill-opacity:1;fill-rule:nonzero;stroke:none"
             d="m 0,0 h -159.366 l 4.709,11.381 H 4.709 Z" /></g><g
           transform="translate(1139.2642,4071.7334)"
           id="g808"><path
             id="path810"
             style="fill:#f8f8f8;fill-opacity:1;fill-rule:nonzero;stroke:none"
             d="m 0,0 h -71.635 l 4.709,11.381 H 4.708 Z" /></g><g
           transform="translate(1500.9966,3875.6064)"
           id="g812"><path
             id="path814"
             style="fill:#f8f8f8;fill-opacity:1;fill-rule:nonzero;stroke:none"
             d="m 0,0 h -250.657 l 4.709,11.381 H 4.709 Z" /></g><g
           transform="translate(699.1299,5071.0156)"
           id="g816"><path
             id="path818"
             style="fill:#5eb2c5;fill-opacity:1;fill-rule:nonzero;stroke:none"
             d="m 0,0 c -1.047,4.993 -5.45,8.567 -10.551,8.567 h -10.293 l -7.633,-7.631 -7.633,7.631 h -10.157 c -5.101,0 -9.504,-3.574 -10.55,-8.567 l -8.741,-41.67 H 8.739 Z" /></g><g
           transform="translate(740.7988,5025.7832)"
           id="g820"><path
             id="path822"
             style="fill:#5eb2c5;fill-opacity:1;fill-rule:nonzero;stroke:none"
             d="m 0,0 c 0,-8.951 1.572,-18.181 -70.078,-18.181 -71.65,0 -70.078,9.23 -70.078,18.181 0,8.95 31.375,16.206 70.078,16.206 C -31.375,16.206 0,8.95 0,0" /></g><g
           transform="translate(637.3999,5047.5947)"
           id="g824"><path
             id="path826"
             style="fill:#2c2b2a;fill-opacity:1;fill-rule:nonzero;stroke:none"
             d="m 0,0 -1.769,-8.433 c 9.811,-1.996 21.268,-3.143 33.51,-3.143 13.521,0 26.088,1.399 36.533,3.796 l -1.76,8.391 C 56.429,-1.547 44.512,-2.795 31.741,-2.795 20.228,-2.795 9.408,-1.781 0,0" /></g><g
           transform="translate(7409.4297,1941.1973)"
           id="g828"><path
             id="path830"
             style="fill:#2c2b2a;fill-opacity:1;fill-rule:nonzero;stroke:none"
             d="M 0,0 14.779,14.781 H 133.023 L 147.803,0 73.901,-59.121 Z" /></g><g
           transform="translate(7707.2891,1857.5244)"
           id="g832"><path
             id="path834"
             style="fill:#5eb2c5;fill-opacity:1;fill-rule:nonzero;stroke:none"
             d="m 0,0 c -8.43,10.817 -19.906,17.883 -32.261,20.971 l -110.188,27.55 c -6.179,1.535 -11.893,5.07 -16.122,10.476 -1.704,2.179 -2.802,4.599 -3.796,7.023 l -32.029,-26.688 h -29.562 -29.56 l -32.029,26.688 c -1.01,-2.424 -2.092,-4.844 -3.782,-7.023 -4.23,-5.406 -9.976,-8.941 -16.151,-10.476 L -415.668,20.971 C -428.023,17.883 -439.471,10.817 -447.929,0 c -8.444,-10.821 -12.514,-23.649 -12.514,-36.389 v -42.522 c 0,-7.557 2.886,-15.127 8.66,-20.901 5.76,-5.766 13.321,-8.659 20.9,-8.659 h 413.85 c 7.562,0 15.126,2.893 20.9,8.659 5.774,5.774 8.66,13.344 8.66,20.901 v 42.522 C 12.527,-23.649 8.442,-10.821 0,0" /></g><g
           transform="translate(7379.8691,1896.8564)"
           id="g836"><path
             id="path838"
             style="fill:#bbbbb9;fill-opacity:1;fill-rule:nonzero;stroke:none"
             d="M 0,0 29.561,44.341 103.462,0 73.902,-44.341 Z" /></g><g
           transform="translate(7586.7949,1896.8564)"
           id="g840"><path
             id="path842"
             style="fill:#bbbbb9;fill-opacity:1;fill-rule:nonzero;stroke:none"
             d="M 0,0 -29.563,44.341 -103.464,0 -73.902,-44.341 Z" /></g><g
           transform="translate(7568.1738,2077.3799)"
           id="g844"><path
             id="path846"
             style="fill:#e5815b;fill-opacity:1;fill-rule:nonzero;stroke:none"
             d="m 0,0 c -4.273,53.225 -27.396,91.065 -88.739,91.065 -61.358,0 -85.262,-39.406 -89.534,-92.615 -6.655,-2.879 -11.1,-14.838 -9.801,-31.972 1.386,-18.505 8.531,-33.239 16.281,-34.331 13.842,-43.75 45.814,-79.132 83.054,-79.132 37.237,0 69.196,35.382 83.038,79.132 7.779,1.092 14.895,15.826 16.281,34.331 C 11.879,-16.388 6.641,-2.88 0,0" /></g><g
           transform="translate(7413.3418,2062.3555)"
           id="g848"><path
             id="path850"
             style="fill:#2c2b2a;fill-opacity:1;fill-rule:nonzero;stroke:none"
             d="m 0,0 h 5.209 c 0,0 -3.766,30.728 9.441,37.384 C 35.896,48.101 44.455,17.176 87.888,21.729 131.333,26.271 128.809,0 128.809,0 h 4.287 c 0,0 1.731,10.544 6.076,13.142 15.777,9.463 22.691,-6.742 22.691,-6.742 0,0 0.36,5.914 0.36,10.227 0,70.857 -27.195,95.352 -60.869,107.129 -50.287,17.602 -69.282,-6.993 -69.282,-6.993 0,0 -20.959,-0.752 -40.156,-18.267 C -26.285,81.898 -33.011,60.109 -29.98,16.673 -29.504,9.814 -30.182,7.316 -30.182,5.91 -24.02,15.891 -14.449,17.839 -7.275,13.466 -2.426,10.506 0,0 0,0" /></g><g
           transform="translate(7528.2344,2228.2764)"
           id="g852"><path
             id="path854"
             style="fill:#5eb2c5;fill-opacity:1;fill-rule:nonzero;stroke:none"
             d="M 0,0 C -1.799,8.581 -9.367,14.724 -18.133,14.724 H -35.82 L -48.938,1.608 -62.057,14.724 H -79.51 C -88.275,14.724 -95.842,8.581 -97.641,0 l -15.02,-71.609 H 15.018 Z" /></g><g
           transform="translate(7599.8408,2150.5449)"
           id="g856"><path
             id="path858"
             style="fill:#5eb2c5;fill-opacity:1;fill-rule:nonzero;stroke:none"
             d="m 0,0 c 0,-15.383 2.702,-31.243 -120.427,-31.243 -123.131,0 -120.429,15.86 -120.429,31.243 0,15.381 53.918,27.85 120.429,27.85 C -53.917,27.85 0,15.381 0,0" /></g><g
           transform="translate(7422.1523,2188.0283)"
           id="g860"><path
             id="path862"
             style="fill:#2c2b2a;fill-opacity:1;fill-rule:nonzero;stroke:none"
             d="m 0,0 -3.039,-14.491 c 16.86,-3.431 36.547,-5.403 57.584,-5.403 23.236,0 44.832,2.405 62.781,6.524 L 114.303,1.05 C 96.974,-2.659 76.492,-4.804 54.545,-4.804 34.762,-4.804 16.168,-3.062 0,0" /></g><g
           transform="translate(4664.1123,1750.21)"
           id="g864"><path
             id="path866"
             style="fill:#100f0d;fill-opacity:1;fill-rule:nonzero;stroke:none"
             d="m 0,0 h -330.457 c -20.17,0 -36.522,16.353 -36.522,36.522 v 98.062 c 0,48.325 39.175,87.5 87.5,87.5 h 228.501 c 48.327,0 87.5,-39.175 87.5,-87.5 V 36.522 C 36.522,16.353 20.172,0 0,0" /></g><g
           transform="translate(4527.5107,1808.8242)"
           id="g868"><path
             id="path870"
             style="fill:#5eb2c5;fill-opacity:1;fill-rule:nonzero;stroke:none"
             d="M 0,0 -28.627,-46.194 -57.254,0 -43.622,163.47 h 29.99 z" /></g><g
           transform="translate(4465.2344,1918.7842)"
           id="g872"><path
             id="path874"
             style="fill:#bbbbb9;fill-opacity:1;fill-rule:nonzero;stroke:none"
             d="M 0,0 29.258,53.51 H -79.237 C -62.037,27.524 -33.702,7.986 0,0" /></g><g
           transform="translate(4532.5332,1918.7842)"
           id="g876"><path
             id="path878"
             style="fill:#bbbbb9;fill-opacity:1;fill-rule:nonzero;stroke:none"
             d="M 0,0 -29.258,53.51 H 79.237 C 62.039,27.524 33.702,7.986 0,0" /></g><g
           transform="translate(4611.3408,2068.5459)"
           id="g880"><path
             id="path882"
             style="fill:#e5815b;fill-opacity:1;fill-rule:nonzero;stroke:none"
             d="m 0,0 c 0,-66.569 -50.349,-120.534 -112.457,-120.534 -62.107,0 -112.457,53.965 -112.457,120.534 0,66.568 50.35,120.532 112.457,120.532 C -50.349,120.532 0,66.568 0,0" /></g><g
           transform="translate(4515.6221,2187.7422)"
           id="g884"><path
             id="path886"
             style="fill:#100f0d;fill-opacity:1;fill-rule:nonzero;stroke:none"
             d="m 0,0 c -0.097,-2.056 -0.147,-4.125 -0.147,-6.207 0,-60.471 41.55,-110.532 95.719,-119.197 0.098,2.056 0.147,4.125 0.147,6.208 C 95.719,-58.725 54.168,-8.664 0,0" /></g><g
           transform="translate(4386.8115,2078.0869)"
           id="g888"><path
             id="path890"
             style="fill:#100f0d;fill-opacity:1;fill-rule:nonzero;stroke:none"
             d="m 0,0 c 13.492,-6.141 28.331,-9.541 43.913,-9.541 59.108,0 107.531,48.888 112.074,110.992 -13.492,6.141 -28.333,9.54 -43.915,9.54 C 52.964,110.991 4.541,62.104 0,0" /></g><g
           transform="translate(5326.543,825.4648)"
           id="g892"><path
             id="path894"
             style="fill:#3a3c49;fill-opacity:1;fill-rule:nonzero;stroke:none"
             d="m 0,0 h -747.463 c -19.233,0 -34.824,15.591 -34.824,34.823 v 395.538 c 0,19.232 15.591,34.827 34.824,34.827 H 0 c 19.232,0 34.826,-15.595 34.826,-34.827 V 34.823 C 34.826,15.591 19.232,0 0,0" /></g><g
           transform="translate(5326.543,1290.6523)"
           id="g896"><path
             id="path898"
             style="fill:#5eb2c5;fill-opacity:1;fill-rule:nonzero;stroke:none"
             d="m 0,0 h -747.463 c -19.233,0 -34.824,-15.595 -34.824,-34.826 V -93.908 H 34.826 v 59.082 C 34.826,-15.595 19.232,0 0,0" /></g><g
           transform="translate(4651.5879,1243.6992)"
           id="g900"><path
             id="path902"
             style="fill:#f8f8f8;fill-opacity:1;fill-rule:nonzero;stroke:none"
             d="m 0,0 c 0,-12.023 -9.746,-21.769 -21.767,-21.769 -12.022,0 -21.766,9.746 -21.766,21.769 0,12.02 9.744,21.766 21.766,21.766 C -9.746,21.766 0,12.02 0,0" /></g><g
           transform="translate(4735.6523,1243.6992)"
           id="g904"><path
             id="path906"
             style="fill:#bbbbb9;fill-opacity:1;fill-rule:nonzero;stroke:none"
             d="m 0,0 c 0,-12.023 -9.745,-21.769 -21.767,-21.769 -12.022,0 -21.766,9.746 -21.766,21.769 0,12.02 9.744,21.766 21.766,21.766 C -9.745,21.766 0,12.02 0,0" /></g><path
           id="path908"
           style="fill:#f8f8f8;fill-opacity:1;fill-rule:nonzero;stroke:none"
           d="m 5299.728,933.199 h -691.673 v 202.104 h 691.673 z" /><path
           id="path910"
           style="fill:#bbbbb9;fill-opacity:1;fill-rule:nonzero;stroke:none"
           d="m 5260.371,999.486 h -611.408 v 15.466 h 611.408 z" /><path
           id="path912"
           style="fill:#bbbbb9;fill-opacity:1;fill-rule:nonzero;stroke:none"
           d="m 5260.371,968.553 h -611.408 v 15.467 h 611.408 z" /><g
           transform="translate(4936.1563,1101.5938)"
           id="g914"><path
             id="path916"
             style="fill:#2c2b2a;fill-opacity:1;fill-rule:nonzero;stroke:none"
             d="M 0,0 3.332,3.33 H 29.981 L 33.313,0 16.656,-13.326 Z" /></g><g
           transform="translate(5003.29,1082.7344)"
           id="g918"><path
             id="path920"
             style="fill:#5eb2c5;fill-opacity:1;fill-rule:nonzero;stroke:none"
             d="m 0,0 c -1.899,2.439 -4.487,4.029 -7.271,4.727 l -24.834,6.209 c -1.394,0.347 -2.683,1.142 -3.634,2.363 -0.386,0.49 -0.633,1.035 -0.856,1.582 l -7.219,-6.016 h -6.664 -6.662 l -7.219,6.016 c -0.227,-0.547 -0.47,-1.092 -0.851,-1.582 -0.953,-1.221 -2.249,-2.016 -3.641,-2.363 L -93.687,4.727 C -96.47,4.029 -99.052,2.439 -100.958,0 c -1.902,-2.439 -2.819,-5.33 -2.819,-8.201 v -9.584 c 0,-1.703 0.649,-3.408 1.952,-4.711 1.297,-1.299 3.002,-1.951 4.711,-1.951 H -3.84 c 1.705,0 3.41,0.652 4.711,1.951 1.302,1.303 1.952,3.008 1.952,4.711 v 9.584 C 2.823,-5.33 1.901,-2.439 0,0" /></g><g
           transform="translate(4929.4941,1091.5996)"
           id="g922"><path
             id="path924"
             style="fill:#bbbbb9;fill-opacity:1;fill-rule:nonzero;stroke:none"
             d="M 0,0 6.662,9.994 23.318,0 16.656,-9.994 Z" /></g><g
           transform="translate(4976.1328,1091.5996)"
           id="g926"><path
             id="path928"
             style="fill:#bbbbb9;fill-opacity:1;fill-rule:nonzero;stroke:none"
             d="M 0,0 -6.664,9.994 -23.32,0 l 6.663,-9.994 z" /></g><g
           transform="translate(4971.9355,1132.2871)"
           id="g930"><path
             id="path932"
             style="fill:#e5815b;fill-opacity:1;fill-rule:nonzero;stroke:none"
             d="m 0,0 c -0.965,11.996 -6.176,20.525 -20.002,20.525 -13.827,0 -19.216,-8.88 -20.179,-20.874 -1.501,-0.649 -2.503,-3.344 -2.209,-7.206 0.313,-4.172 1.924,-7.492 3.669,-7.738 3.121,-9.861 10.328,-17.834 18.719,-17.834 8.395,0 15.598,7.973 18.717,17.834 1.752,0.246 3.356,3.566 3.67,7.738 C 2.678,-3.693 1.496,-0.648 0,0" /></g><g
           transform="translate(4937.0371,1128.9004)"
           id="g934"><path
             id="path936"
             style="fill:#2c2b2a;fill-opacity:1;fill-rule:nonzero;stroke:none"
             d="m 0,0 h 1.176 c 0,0 -0.85,6.926 2.127,8.426 C 8.092,10.842 10.021,3.872 19.811,4.897 29.601,5.922 29.032,0 29.032,0 h 0.966 c 0,0 0.392,2.377 1.37,2.963 3.556,2.131 5.115,-1.52 5.115,-1.52 0,0 0.08,1.333 0.08,2.305 0,15.97 -6.128,21.491 -13.717,24.145 -11.334,3.966 -15.617,-1.575 -15.617,-1.575 0,0 -4.723,-0.17 -9.049,-4.119 C -5.924,18.459 -7.439,13.549 -6.756,3.758 -6.648,2.213 -6.801,1.65 -6.801,1.333 -5.412,3.582 -3.257,4.021 -1.639,3.035 -0.545,2.369 0,0 0,0" /></g><g
           transform="translate(4962.9336,1166.2988)"
           id="g938"><path
             id="path940"
             style="fill:#5eb2c5;fill-opacity:1;fill-rule:nonzero;stroke:none"
             d="m 0,0 c -0.405,1.933 -2.112,3.316 -4.086,3.316 h -3.987 l -2.957,-2.955 -2.957,2.955 h -3.934 c -1.975,0 -3.681,-1.383 -4.087,-3.316 l -3.385,-16.142 H 3.384 Z" /></g><g
           transform="translate(4979.0723,1148.7773)"
           id="g942"><path
             id="path944"
             style="fill:#5eb2c5;fill-opacity:1;fill-rule:nonzero;stroke:none"
             d="m 0,0 c 0,-3.467 0.608,-7.041 -27.143,-7.041 -27.752,0 -27.142,3.574 -27.142,7.041 0,3.467 12.151,6.277 27.142,6.277 C -12.152,6.277 0,3.467 0,0" /></g><g
           transform="translate(4939.0244,1157.2256)"
           id="g946"><path
             id="path948"
             style="fill:#2c2b2a;fill-opacity:1;fill-rule:nonzero;stroke:none"
             d="m 0,0 -0.685,-3.266 c 3.8,-0.774 8.237,-1.217 12.978,-1.217 5.237,0 10.104,0.541 14.151,1.468 L 25.763,0.237 C 21.857,-0.599 17.24,-1.083 12.293,-1.083 7.834,-1.083 3.644,-0.689 0,0" /></g></g></g></g></svg>