<?xml version="1.0" encoding="utf-8"?>
<!-- Generator: Adobe Illustrator 19.0.0, SVG Export Plug-In . SVG Version: 6.00 Build 0)  -->
<svg version="1.1" id="Layer_1" xmlns="http://www.w3.org/2000/svg" xmlns:xlink="http://www.w3.org/1999/xlink" x="0px" y="0px"
	 viewBox="0 0 143 176.6" style="enable-background:new 0 0 143 176.6;" xml:space="preserve">
<style type="text/css">
	.st0{fill:#00A9BD;}
</style>
<g>
	<g>
		<path class="st0" d="M11.8,161.9l-1.3,2.6c0,0-1.4-1-2.9-1c-1.1,0-1.7,0.5-1.7,1.3c0,0.8,1.3,1.4,3,2c1.6,0.7,3.3,2,3.3,3.9
			c0,3.4-2.6,4.6-5.3,4.6c-3.3,0-5.3-1.9-5.3-1.9l1.6-2.7c0,0,1.9,1.6,3.5,1.6c0.7,0,2-0.1,2-1.4c0-1-1.5-1.5-3.2-2.3
			c-1.7-0.8-2.7-2.2-2.7-3.6c0-2.6,2.3-4.3,4.6-4.3C10,160.5,11.8,161.9,11.8,161.9z"/>
		<path class="st0" d="M31.6,166.5L31.6,166.5l-3,8.3h-1.9l-2.9-8.3h-0.1l-0.7,8.4h-3.2l1.3-14.2h3.4l3.1,8.2l3.1-8.2h3.4l1.3,14.2
			h-3.2L31.6,166.5z"/>
		<path class="st0" d="M56.6,174.9h-3.5l-1-2.8h-5.4l-1,2.8h-3.5l5.7-14.2h3L56.6,174.9z M49.4,165.2L49.4,165.2l-1.6,4.1H51
			L49.4,165.2z"/>
		<path class="st0" d="M69.1,160.8c2.6,0,4.6,1.4,4.6,4.2c0,2.1-1.2,3.6-2.9,4.1l4.9,5.8h-4.1l-4.3-5.6v5.6H64v-14.2H69.1z
			 M67.6,167.1c1.2,0,2.7-0.1,2.7-1.9c0-1.8-1.5-1.9-2.7-1.9h-0.4v3.7H67.6z"/>
		<path class="st0" d="M81.6,160.8h9.9v2.8h-3.4v11.3h-3.2v-11.3h-3.4V160.8z"/>
		<path class="st0" d="M102.8,174.9h-3.2v-14.2h3.2V174.9z"/>
		<path class="st0" d="M120.2,174.9l-5.2-6v6h-3.2v-14.2h3.2v5.8l4.9-5.8h3.9l-5.7,6.7l6.6,7.4H120.2z"/>
		<path class="st0" d="M141.3,161.9l-1.3,2.6c0,0-1.4-1-2.9-1c-1.1,0-1.7,0.5-1.7,1.3c0,0.8,1.3,1.4,2.9,2c1.6,0.7,3.3,2,3.3,3.9
			c0,3.4-2.6,4.6-5.3,4.6c-3.3,0-5.3-1.9-5.3-1.9l1.6-2.7c0,0,1.9,1.6,3.5,1.6c0.7,0,2-0.1,2-1.4c0-1-1.5-1.5-3.2-2.3
			c-1.7-0.8-2.7-2.2-2.7-3.6c0-2.6,2.3-4.3,4.6-4.3C139.5,160.5,141.3,161.9,141.3,161.9z"/>
	</g>
	<path class="st0" d="M141.9,144.4V63.7H79.4V48h47.3h15.1V31.9V17.6V1.4h-15.1H1.1v78.5h62v15.7H17.3l-15.7,0H1.1v32.6v16.2h16.2
		H141.9z M17.3,63.7V17.6h108.4v14.3H33.5V48h29.7v15.7H17.3z M17.3,111.7h45.9h16.2h30.1V95.5H79.4V79.9h46.3v48.3H17.3V111.7z"/>
</g>
</svg>
